<?xml version="1.0" encoding="UTF-8" standalone="no"?>
<!DOCTYPE svg PUBLIC "-//W3C//DTD SVG 1.1//EN"
 "http://www.w3.org/Graphics/SVG/1.1/DTD/svg11.dtd">
<!-- Generated by graphviz version 2.43.0 (0)
 -->
<!-- Title: rust_callgraph Pages: 1 -->
<svg width="7236pt" height="168pt"
 viewBox="0.00 0.00 7236.00 168.00" xmlns="http://www.w3.org/2000/svg" xmlns:xlink="http://www.w3.org/1999/xlink">
<g id="graph0" class="graph" transform="scale(1 1) rotate(0) translate(4 164)">
<title>rust_callgraph</title>
<polygon fill="white" stroke="transparent" points="-4,4 -4,-164 7232,-164 7232,4 -4,4"/>
<!-- src -->
<g id="node1" class="node">
<title>src</title>
<g id="a_node1"><a xlink:title="src::c4::scan_string_or_char">
<path fill="#e493ad" stroke="black" d="M119,-126C119,-126 12,-126 12,-126 6,-126 0,-120 0,-114 0,-114 0,-102 0,-102 0,-96 6,-90 12,-90 12,-90 119,-90 119,-90 125,-90 131,-96 131,-102 131,-102 131,-114 131,-114 131,-120 125,-126 119,-126"/>
<text text-anchor="middle" x="65.5" y="-105.5" font-family="DejaVu Sans Mono" font-size="10.00">scan_string_or_char</text>
</a>
</g>
</g>
<!-- env -->
<g id="node2" class="node">
<title>env</title>
<g id="a_node2"><a xlink:title="env::args">
<path fill="#c8c8ff" stroke="black" d="M191.5,-126C191.5,-126 161.5,-126 161.5,-126 155.5,-126 149.5,-120 149.5,-114 149.5,-114 149.5,-102 149.5,-102 149.5,-96 155.5,-90 161.5,-90 161.5,-90 191.5,-90 191.5,-90 197.5,-90 203.5,-96 203.5,-102 203.5,-102 203.5,-114 203.5,-114 203.5,-120 197.5,-126 191.5,-126"/>
<text text-anchor="middle" x="176.5" y="-105.5" font-family="DejaVu Sans Mono" font-size="10.00">args</text>
</a>
</g>
</g>
<!-- args.len -->
<g id="node3" class="node">
<title>args.len</title>
<g id="a_node3"><a xlink:title="args.len">
<path fill="#c8c8ff" stroke="black" d="M361,-54C361,-54 320,-54 320,-54 314,-54 308,-48 308,-42 308,-42 308,-30 308,-30 308,-24 314,-18 320,-18 320,-18 361,-18 361,-18 367,-18 373,-24 373,-30 373,-30 373,-42 373,-42 373,-48 367,-54 361,-54"/>
<text text-anchor="middle" x="340.5" y="-33.5" font-family="DejaVu Sans Mono" font-size="10.00">args.len</text>
</a>
</g>
</g>
<!-- macro! -->
<g id="node4" class="node">
<title>macro!</title>
<g id="a_node4"><a xlink:title="macro!::matches">
<path fill="#c8c8ff" stroke="black" d="M4168,-126C4168,-126 4133,-126 4133,-126 4127,-126 4121,-120 4121,-114 4121,-114 4121,-102 4121,-102 4121,-96 4127,-90 4133,-90 4133,-90 4168,-90 4168,-90 4174,-90 4180,-96 4180,-102 4180,-102 4180,-114 4180,-114 4180,-120 4174,-126 4168,-126"/>
<text text-anchor="middle" x="4150.5" y="-105.5" font-family="DejaVu Sans Mono" font-size="10.00">matches</text>
</a>
</g>
</g>
<!-- c4 -->
<g id="node5" class="node">
<title>c4</title>
<g id="a_node5"><a xlink:title="c4::C4::main">
<path fill="#c8c8ff" stroke="black" d="M4240.5,-126C4240.5,-126 4210.5,-126 4210.5,-126 4204.5,-126 4198.5,-120 4198.5,-114 4198.5,-114 4198.5,-102 4198.5,-102 4198.5,-96 4204.5,-90 4210.5,-90 4210.5,-90 4240.5,-90 4240.5,-90 4246.5,-90 4252.5,-96 4252.5,-102 4252.5,-102 4252.5,-114 4252.5,-114 4252.5,-120 4246.5,-126 4240.5,-126"/>
<text text-anchor="middle" x="4225.5" y="-105.5" font-family="DejaVu Sans Mono" font-size="10.00">main</text>
</a>
</g>
</g>
<!-- Main -->
<g id="node6" class="node">
<title>Main</title>
<g id="a_node6"><a xlink:title="Main::run">
<path fill="#c8c8ff" stroke="black" d="M4312.5,-126C4312.5,-126 4282.5,-126 4282.5,-126 4276.5,-126 4270.5,-120 4270.5,-114 4270.5,-114 4270.5,-102 4270.5,-102 4270.5,-96 4276.5,-90 4282.5,-90 4282.5,-90 4312.5,-90 4312.5,-90 4318.5,-90 4324.5,-96 4324.5,-102 4324.5,-102 4324.5,-114 4324.5,-114 4324.5,-120 4318.5,-126 4312.5,-126"/>
<text text-anchor="middle" x="4297.5" y="-105.5" font-family="DejaVu Sans Mono" font-size="10.00">run</text>
</a>
</g>
</g>
<!-- process -->
<g id="node7" class="node">
<title>process</title>
<g id="a_node7"><a xlink:title="process::exit">
<path fill="#c8c8ff" stroke="black" d="M4384.5,-126C4384.5,-126 4354.5,-126 4354.5,-126 4348.5,-126 4342.5,-120 4342.5,-114 4342.5,-114 4342.5,-102 4342.5,-102 4342.5,-96 4348.5,-90 4354.5,-90 4354.5,-90 4384.5,-90 4384.5,-90 4390.5,-90 4396.5,-96 4396.5,-102 4396.5,-102 4396.5,-114 4396.5,-114 4396.5,-120 4390.5,-126 4384.5,-126"/>
<text text-anchor="middle" x="4369.5" y="-105.5" font-family="DejaVu Sans Mono" font-size="10.00">exit</text>
</a>
</g>
</g>
<!-- &quot;hello, world\n&quot;.to_string -->
<g id="node8" class="node">
<title>&quot;hello, world\n&quot;.to_string</title>
<g id="a_node8"><a xlink:title="&quot;hello, world&#10;&quot;.to_string">
<path fill="#c8c8ff" stroke="black" d="M551,-54C551,-54 480,-54 480,-54 474,-54 468,-48 468,-42 468,-42 468,-30 468,-30 468,-24 474,-18 480,-18 480,-18 551,-18 551,-18 557,-18 563,-24 563,-30 563,-30 563,-42 563,-42 563,-48 557,-54 551,-54"/>
<text text-anchor="middle" x="515.5" y="-39" font-family="DejaVu Sans Mono" font-size="10.00">&quot;hello, world</text>
<text text-anchor="middle" x="515.5" y="-28" font-family="DejaVu Sans Mono" font-size="10.00">&quot;.to_string</text>
</a>
</g>
</g>
<!-- message.into -->
<g id="node9" class="node">
<title>message.into</title>
<g id="a_node9"><a xlink:title="message.into">
<path fill="#c8c8ff" stroke="black" d="M7049,-54C7049,-54 6984,-54 6984,-54 6978,-54 6972,-48 6972,-42 6972,-42 6972,-30 6972,-30 6972,-24 6978,-18 6984,-18 6984,-18 7049,-18 7049,-18 7055,-18 7061,-24 7061,-30 7061,-30 7061,-42 7061,-42 7061,-48 7055,-54 7049,-54"/>
<text text-anchor="middle" x="7016.5" y="-33.5" font-family="DejaVu Sans Mono" font-size="10.00">message.into</text>
</a>
</g>
</g>
<!-- Self -->
<g id="node10" class="node">
<title>Self</title>
<g id="a_node10"><a xlink:title="Self::precedence">
<path fill="#c8c8ff" stroke="black" d="M4480,-126C4480,-126 4427,-126 4427,-126 4421,-126 4415,-120 4415,-114 4415,-114 4415,-102 4415,-102 4415,-96 4421,-90 4427,-90 4427,-90 4480,-90 4480,-90 4486,-90 4492,-96 4492,-102 4492,-102 4492,-114 4492,-114 4492,-120 4486,-126 4480,-126"/>
<text text-anchor="middle" x="4453.5" y="-105.5" font-family="DejaVu Sans Mono" font-size="10.00">precedence</text>
</a>
</g>
</g>
<!-- std -->
<g id="node11" class="node">
<title>std</title>
<g id="a_node11"><a xlink:title="std::env::var">
<path fill="#c8c8ff" stroke="black" d="M4552.5,-126C4552.5,-126 4522.5,-126 4522.5,-126 4516.5,-126 4510.5,-120 4510.5,-114 4510.5,-114 4510.5,-102 4510.5,-102 4510.5,-96 4516.5,-90 4522.5,-90 4522.5,-90 4552.5,-90 4552.5,-90 4558.5,-90 4564.5,-96 4564.5,-102 4564.5,-102 4564.5,-114 4564.5,-114 4564.5,-120 4558.5,-126 4552.5,-126"/>
<text text-anchor="middle" x="4537.5" y="-105.5" font-family="DejaVu Sans Mono" font-size="10.00">var</text>
</a>
</g>
</g>
<!-- &quot;./c4&#45;c&quot;.to_string -->
<g id="node12" class="node">
<title>&quot;./c4&#45;c&quot;.to_string</title>
<g id="a_node12"><a xlink:title="&quot;./c4&#45;c&quot;.to_string">
<path fill="#c8c8ff" stroke="black" d="M4074,-54C4074,-54 3973,-54 3973,-54 3967,-54 3961,-48 3961,-42 3961,-42 3961,-30 3961,-30 3961,-24 3967,-18 3973,-18 3973,-18 4074,-18 4074,-18 4080,-18 4086,-24 4086,-30 4086,-30 4086,-42 4086,-42 4086,-48 4080,-54 4074,-54"/>
<text text-anchor="middle" x="4023.5" y="-33.5" font-family="DejaVu Sans Mono" font-size="10.00">&quot;./c4&#45;c&quot;.to_string</text>
</a>
</g>
</g>
<!-- Command -->
<g id="node13" class="node">
<title>Command</title>
<g id="a_node13"><a xlink:title="Command::new">
<path fill="#c8c8ff" stroke="black" d="M4624.5,-126C4624.5,-126 4594.5,-126 4594.5,-126 4588.5,-126 4582.5,-120 4582.5,-114 4582.5,-114 4582.5,-102 4582.5,-102 4582.5,-96 4588.5,-90 4594.5,-90 4594.5,-90 4624.5,-90 4624.5,-90 4630.5,-90 4636.5,-96 4636.5,-102 4636.5,-102 4636.5,-114 4636.5,-114 4636.5,-120 4630.5,-126 4624.5,-126"/>
<text text-anchor="middle" x="4609.5" y="-105.5" font-family="DejaVu Sans Mono" font-size="10.00">new</text>
</a>
</g>
</g>
<!-- status.success -->
<g id="node14" class="node">
<title>status.success</title>
<g id="a_node14"><a xlink:title="status.success">
<path fill="#c8c8ff" stroke="black" d="M4193,-54C4193,-54 4116,-54 4116,-54 4110,-54 4104,-48 4104,-42 4104,-42 4104,-30 4104,-30 4104,-24 4110,-18 4116,-18 4116,-18 4193,-18 4193,-18 4199,-18 4205,-24 4205,-30 4205,-30 4205,-42 4205,-42 4205,-48 4199,-54 4193,-54"/>
<text text-anchor="middle" x="4154.5" y="-33.5" font-family="DejaVu Sans Mono" font-size="10.00">status.success</text>
</a>
</g>
</g>
<!-- String -->
<g id="node15" class="node">
<title>String</title>
<g id="a_node15"><a xlink:title="String::new">
<path fill="#c8c8ff" stroke="black" d="M4696.5,-126C4696.5,-126 4666.5,-126 4666.5,-126 4660.5,-126 4654.5,-120 4654.5,-114 4654.5,-114 4654.5,-102 4654.5,-102 4654.5,-96 4660.5,-90 4666.5,-90 4666.5,-90 4696.5,-90 4696.5,-90 4702.5,-90 4708.5,-96 4708.5,-102 4708.5,-102 4708.5,-114 4708.5,-114 4708.5,-120 4702.5,-126 4696.5,-126"/>
<text text-anchor="middle" x="4681.5" y="-105.5" font-family="DejaVu Sans Mono" font-size="10.00">new</text>
</a>
</g>
</g>
<!-- c4.next().map_err -->
<g id="node16" class="node">
<title>c4.next().map_err</title>
<g id="a_node16"><a xlink:title="c4.next().map_err">
<path fill="#c8c8ff" stroke="black" d="M4330,-54C4330,-54 4235,-54 4235,-54 4229,-54 4223,-48 4223,-42 4223,-42 4223,-30 4223,-30 4223,-24 4229,-18 4235,-18 4235,-18 4330,-18 4330,-18 4336,-18 4342,-24 4342,-30 4342,-30 4342,-42 4342,-42 4342,-48 4336,-54 4330,-54"/>
<text text-anchor="middle" x="4282.5" y="-33.5" font-family="DejaVu Sans Mono" font-size="10.00">c4.next().map_err</text>
</a>
</g>
</g>
<!-- c4.next -->
<g id="node17" class="node">
<title>c4.next</title>
<g id="a_node17"><a xlink:title="c4.next">
<path fill="#c8c8ff" stroke="black" d="M4407,-54C4407,-54 4372,-54 4372,-54 4366,-54 4360,-48 4360,-42 4360,-42 4360,-30 4360,-30 4360,-24 4366,-18 4372,-18 4372,-18 4407,-18 4407,-18 4413,-18 4419,-24 4419,-30 4419,-30 4419,-42 4419,-42 4419,-48 4413,-54 4407,-54"/>
<text text-anchor="middle" x="4389.5" y="-33.5" font-family="DejaVu Sans Mono" font-size="10.00">c4.next</text>
</a>
</g>
</g>
<!-- e.to_string -->
<g id="node18" class="node">
<title>e.to_string</title>
<g id="a_node18"><a xlink:title="e.to_string">
<path fill="#c8c8ff" stroke="black" d="M4508,-54C4508,-54 4449,-54 4449,-54 4443,-54 4437,-48 4437,-42 4437,-42 4437,-30 4437,-30 4437,-24 4443,-18 4449,-18 4449,-18 4508,-18 4508,-18 4514,-18 4520,-24 4520,-30 4520,-30 4520,-42 4520,-42 4520,-48 4514,-54 4508,-54"/>
<text text-anchor="middle" x="4478.5" y="-33.5" font-family="DejaVu Sans Mono" font-size="10.00">e.to_string</text>
</a>
</g>
</g>
<!-- source.chars().collect -->
<g id="node19" class="node">
<title>source.chars().collect</title>
<g id="a_node19"><a xlink:title="source.chars().collect">
<path fill="#c8c8ff" stroke="black" d="M7216,-54C7216,-54 7091,-54 7091,-54 7085,-54 7079,-48 7079,-42 7079,-42 7079,-30 7079,-30 7079,-24 7085,-18 7091,-18 7091,-18 7216,-18 7216,-18 7222,-18 7228,-24 7228,-30 7228,-30 7228,-42 7228,-42 7228,-48 7222,-54 7216,-54"/>
<text text-anchor="middle" x="7153.5" y="-33.5" font-family="DejaVu Sans Mono" font-size="10.00">source.chars().collect</text>
</a>
</g>
</g>
<!-- source.chars -->
<g id="node20" class="node">
<title>source.chars</title>
<g id="a_node20"><a xlink:title="source.chars">
<path fill="#c8c8ff" stroke="black" d="M4841,-54C4841,-54 4776,-54 4776,-54 4770,-54 4764,-48 4764,-42 4764,-42 4764,-30 4764,-30 4764,-24 4770,-18 4776,-18 4776,-18 4841,-18 4841,-18 4847,-18 4853,-24 4853,-30 4853,-30 4853,-42 4853,-42 4853,-48 4847,-54 4841,-54"/>
<text text-anchor="middle" x="4808.5" y="-33.5" font-family="DejaVu Sans Mono" font-size="10.00">source.chars</text>
</a>
</g>
</g>
<!-- Vec -->
<g id="node21" class="node">
<title>Vec</title>
<g id="a_node21"><a xlink:title="Vec::new">
<path fill="#c8c8ff" stroke="black" d="M4768.5,-126C4768.5,-126 4738.5,-126 4738.5,-126 4732.5,-126 4726.5,-120 4726.5,-114 4726.5,-114 4726.5,-102 4726.5,-102 4726.5,-96 4732.5,-90 4738.5,-90 4738.5,-90 4768.5,-90 4768.5,-90 4774.5,-90 4780.5,-96 4780.5,-102 4780.5,-102 4780.5,-114 4780.5,-114 4780.5,-120 4774.5,-126 4768.5,-126"/>
<text text-anchor="middle" x="4753.5" y="-105.5" font-family="DejaVu Sans Mono" font-size="10.00">new</text>
</a>
</g>
</g>
<!-- self.token_text.clear -->
<g id="node22" class="node">
<title>self.token_text.clear</title>
<g id="a_node22"><a xlink:title="self.token_text.clear">
<path fill="#c8c8ff" stroke="black" d="M5002,-54C5002,-54 4883,-54 4883,-54 4877,-54 4871,-48 4871,-42 4871,-42 4871,-30 4871,-30 4871,-24 4877,-18 4883,-18 4883,-18 5002,-18 5002,-18 5008,-18 5014,-24 5014,-30 5014,-30 5014,-42 5014,-42 5014,-48 5008,-54 5002,-54"/>
<text text-anchor="middle" x="4942.5" y="-33.5" font-family="DejaVu Sans Mono" font-size="10.00">self.token_text.clear</text>
</a>
</g>
</g>
<!-- self.peek_char -->
<g id="node23" class="node">
<title>self.peek_char</title>
<g id="a_node23"><a xlink:title="self.peek_char">
<path fill="#c8c8ff" stroke="black" d="M5121,-54C5121,-54 5044,-54 5044,-54 5038,-54 5032,-48 5032,-42 5032,-42 5032,-30 5032,-30 5032,-24 5038,-18 5044,-18 5044,-18 5121,-18 5121,-18 5127,-18 5133,-24 5133,-30 5133,-30 5133,-42 5133,-42 5133,-48 5127,-54 5121,-54"/>
<text text-anchor="middle" x="5082.5" y="-33.5" font-family="DejaVu Sans Mono" font-size="10.00">self.peek_char</text>
</a>
</g>
</g>
<!-- self.peek_next_char -->
<g id="node24" class="node">
<title>self.peek_next_char</title>
<g id="a_node24"><a xlink:title="self.peek_next_char">
<path fill="#c8c8ff" stroke="black" d="M5270,-54C5270,-54 5163,-54 5163,-54 5157,-54 5151,-48 5151,-42 5151,-42 5151,-30 5151,-30 5151,-24 5157,-18 5163,-18 5163,-18 5270,-18 5270,-18 5276,-18 5282,-24 5282,-30 5282,-30 5282,-42 5282,-42 5282,-48 5276,-54 5270,-54"/>
<text text-anchor="middle" x="5216.5" y="-33.5" font-family="DejaVu Sans Mono" font-size="10.00">self.peek_next_char</text>
</a>
</g>
</g>
<!-- c.is_ascii_alphabetic -->
<g id="node25" class="node">
<title>c.is_ascii_alphabetic</title>
<g id="a_node25"><a xlink:title="c.is_ascii_alphabetic">
<path fill="#c8c8ff" stroke="black" d="M5431,-54C5431,-54 5312,-54 5312,-54 5306,-54 5300,-48 5300,-42 5300,-42 5300,-30 5300,-30 5300,-24 5306,-18 5312,-18 5312,-18 5431,-18 5431,-18 5437,-18 5443,-24 5443,-30 5443,-30 5443,-42 5443,-42 5443,-48 5437,-54 5431,-54"/>
<text text-anchor="middle" x="5371.5" y="-33.5" font-family="DejaVu Sans Mono" font-size="10.00">c.is_ascii_alphabetic</text>
</a>
</g>
</g>
<!-- c2.is_ascii_alphanumeric -->
<g id="node26" class="node">
<title>c2.is_ascii_alphanumeric</title>
<g id="a_node26"><a xlink:title="c2.is_ascii_alphanumeric">
<path fill="#c8c8ff" stroke="black" d="M5610,-54C5610,-54 5473,-54 5473,-54 5467,-54 5461,-48 5461,-42 5461,-42 5461,-30 5461,-30 5461,-24 5467,-18 5473,-18 5473,-18 5610,-18 5610,-18 5616,-18 5622,-24 5622,-30 5622,-30 5622,-42 5622,-42 5622,-48 5616,-54 5610,-54"/>
<text text-anchor="middle" x="5541.5" y="-33.5" font-family="DejaVu Sans Mono" font-size="10.00">c2.is_ascii_alphanumeric</text>
</a>
</g>
</g>
<!-- self.chars[start..self.position].iter().collect -->
<g id="node27" class="node">
<title>self.chars[start..self.position].iter().collect</title>
<g id="a_node27"><a xlink:title="self.chars[start..self.position].iter().collect">
<path fill="#c8c8ff" stroke="black" d="M5927,-54C5927,-54 5652,-54 5652,-54 5646,-54 5640,-48 5640,-42 5640,-42 5640,-30 5640,-30 5640,-24 5646,-18 5652,-18 5652,-18 5927,-18 5927,-18 5933,-18 5939,-24 5939,-30 5939,-30 5939,-42 5939,-42 5939,-48 5933,-54 5927,-54"/>
<text text-anchor="middle" x="5789.5" y="-33.5" font-family="DejaVu Sans Mono" font-size="10.00">self.chars[start..self.position].iter().collect</text>
</a>
</g>
</g>
<!-- self.chars[start..self.position].iter -->
<g id="node28" class="node">
<title>self.chars[start..self.position].iter</title>
<g id="a_node28"><a xlink:title="self.chars[start..self.position].iter">
<path fill="#c8c8ff" stroke="black" d="M6184,-54C6184,-54 5969,-54 5969,-54 5963,-54 5957,-48 5957,-42 5957,-42 5957,-30 5957,-30 5957,-24 5963,-18 5969,-18 5969,-18 6184,-18 6184,-18 6190,-18 6196,-24 6196,-30 6196,-30 6196,-42 6196,-42 6196,-48 6190,-54 6184,-54"/>
<text text-anchor="middle" x="6076.5" y="-33.5" font-family="DejaVu Sans Mono" font-size="10.00">self.chars[start..self.position].iter</text>
</a>
</g>
</g>
<!-- self.token_text.as_str -->
<g id="node29" class="node">
<title>self.token_text.as_str</title>
<g id="a_node29"><a xlink:title="self.token_text.as_str">
<path fill="#c8c8ff" stroke="black" d="M6351,-54C6351,-54 6226,-54 6226,-54 6220,-54 6214,-48 6214,-42 6214,-42 6214,-30 6214,-30 6214,-24 6220,-18 6226,-18 6226,-18 6351,-18 6351,-18 6357,-18 6363,-24 6363,-30 6363,-30 6363,-42 6363,-42 6363,-48 6357,-54 6351,-54"/>
<text text-anchor="middle" x="6288.5" y="-33.5" font-family="DejaVu Sans Mono" font-size="10.00">self.token_text.as_str</text>
</a>
</g>
</g>
<!-- c.is_ascii_digit -->
<g id="node30" class="node">
<title>c.is_ascii_digit</title>
<g id="a_node30"><a xlink:title="c.is_ascii_digit">
<path fill="#c8c8ff" stroke="black" d="M6482,-54C6482,-54 6393,-54 6393,-54 6387,-54 6381,-48 6381,-42 6381,-42 6381,-30 6381,-30 6381,-24 6387,-18 6393,-18 6393,-18 6482,-18 6482,-18 6488,-18 6494,-24 6494,-30 6494,-30 6494,-42 6494,-42 6494,-48 6488,-54 6482,-54"/>
<text text-anchor="middle" x="6437.5" y="-33.5" font-family="DejaVu Sans Mono" font-size="10.00">c.is_ascii_digit</text>
</a>
</g>
</g>
<!-- self.scan_number -->
<g id="node31" class="node">
<title>self.scan_number</title>
<g id="a_node31"><a xlink:title="self.scan_number">
<path fill="#c8c8ff" stroke="black" d="M6613,-54C6613,-54 6524,-54 6524,-54 6518,-54 6512,-48 6512,-42 6512,-42 6512,-30 6512,-30 6512,-24 6518,-18 6524,-18 6524,-18 6613,-18 6613,-18 6619,-18 6625,-24 6625,-30 6625,-30 6625,-42 6625,-42 6625,-48 6619,-54 6613,-54"/>
<text text-anchor="middle" x="6568.5" y="-33.5" font-family="DejaVu Sans Mono" font-size="10.00">self.scan_number</text>
</a>
</g>
</g>
<!-- self.scan_string_or_char -->
<g id="node32" class="node">
<title>self.scan_string_or_char</title>
<g id="a_node32"><a xlink:title="self.scan_string_or_char">
<path fill="#c8c8ff" stroke="black" d="M6792,-54C6792,-54 6655,-54 6655,-54 6649,-54 6643,-48 6643,-42 6643,-42 6643,-30 6643,-30 6643,-24 6649,-18 6655,-18 6655,-18 6792,-18 6792,-18 6798,-18 6804,-24 6804,-30 6804,-30 6804,-42 6804,-42 6804,-48 6798,-54 6792,-54"/>
<text text-anchor="middle" x="6723.5" y="-33.5" font-family="DejaVu Sans Mono" font-size="10.00">self.scan_string_or_char</text>
</a>
</g>
</g>
<!-- C4Error -->
<g id="node33" class="node">
<title>C4Error</title>
<g id="a_node33"><a xlink:title="C4Error::new">
<path fill="#c8c8ff" stroke="black" d="M4840.5,-126C4840.5,-126 4810.5,-126 4810.5,-126 4804.5,-126 4798.5,-120 4798.5,-114 4798.5,-114 4798.5,-102 4798.5,-102 4798.5,-96 4804.5,-90 4810.5,-90 4810.5,-90 4840.5,-90 4840.5,-90 4846.5,-90 4852.5,-96 4852.5,-102 4852.5,-102 4852.5,-114 4852.5,-114 4852.5,-120 4846.5,-126 4840.5,-126"/>
<text text-anchor="middle" x="4825.5" y="-105.5" font-family="DejaVu Sans Mono" font-size="10.00">new</text>
</a>
</g>
</g>
<!-- self.emitted.push -->
<g id="node34" class="node">
<title>self.emitted.push</title>
<g id="a_node34"><a xlink:title="self.emitted.push">
<path fill="#c8c8ff" stroke="black" d="M4645,-54C4645,-54 4550,-54 4550,-54 4544,-54 4538,-48 4538,-42 4538,-42 4538,-30 4538,-30 4538,-24 4544,-18 4550,-18 4550,-18 4645,-18 4645,-18 4651,-18 4657,-24 4657,-30 4657,-30 4657,-42 4657,-42 4657,-48 4651,-54 4645,-54"/>
<text text-anchor="middle" x="4597.5" y="-33.5" font-family="DejaVu Sans Mono" font-size="10.00">self.emitted.push</text>
</a>
</g>
</g>
<!-- Instruction -->
<g id="node35" class="node">
<title>Instruction</title>
<g id="a_node35"><a xlink:title="Instruction::BranchIfNonZero">
<path fill="#c8c8ff" stroke="black" d="M4966,-126C4966,-126 4883,-126 4883,-126 4877,-126 4871,-120 4871,-114 4871,-114 4871,-102 4871,-102 4871,-96 4877,-90 4883,-90 4883,-90 4966,-90 4966,-90 4972,-90 4978,-96 4978,-102 4978,-102 4978,-114 4978,-114 4978,-120 4972,-126 4966,-126"/>
<text text-anchor="middle" x="4924.5" y="-105.5" font-family="DejaVu Sans Mono" font-size="10.00">BranchIfNonZero</text>
</a>
</g>
</g>
<!-- self.next -->
<g id="node36" class="node">
<title>self.next</title>
<g id="a_node36"><a xlink:title="self.next">
<path fill="#c8c8ff" stroke="black" d="M4734,-54C4734,-54 4687,-54 4687,-54 4681,-54 4675,-48 4675,-42 4675,-42 4675,-30 4675,-30 4675,-24 4681,-18 4687,-18 4687,-18 4734,-18 4734,-18 4740,-18 4746,-24 4746,-30 4746,-30 4746,-42 4746,-42 4746,-48 4740,-54 4734,-54"/>
<text text-anchor="middle" x="4710.5" y="-33.5" font-family="DejaVu Sans Mono" font-size="10.00">self.next</text>
</a>
</g>
</g>
<!-- self.token_text.clone -->
<g id="node37" class="node">
<title>self.token_text.clone</title>
<g id="a_node37"><a xlink:title="self.token_text.clone">
<path fill="#c8c8ff" stroke="black" d="M712,-54C712,-54 593,-54 593,-54 587,-54 581,-48 581,-42 581,-42 581,-30 581,-30 581,-24 587,-18 593,-18 593,-18 712,-18 712,-18 718,-18 724,-24 724,-30 724,-30 724,-42 724,-42 724,-48 718,-54 712,-54"/>
<text text-anchor="middle" x="652.5" y="-33.5" font-family="DejaVu Sans Mono" font-size="10.00">self.token_text.clone</text>
</a>
</g>
</g>
<!-- self.expr -->
<g id="node38" class="node">
<title>self.expr</title>
<g id="a_node38"><a xlink:title="self.expr">
<path fill="#c8c8ff" stroke="black" d="M801,-54C801,-54 754,-54 754,-54 748,-54 742,-48 742,-42 742,-42 742,-30 742,-30 742,-24 748,-18 754,-18 754,-18 801,-18 801,-18 807,-18 813,-24 813,-30 813,-30 813,-42 813,-42 813,-48 807,-54 801,-54"/>
<text text-anchor="middle" x="777.5" y="-33.5" font-family="DejaVu Sans Mono" font-size="10.00">self.expr</text>
</a>
</g>
</g>
<!-- self.emitted.pop -->
<g id="node39" class="node">
<title>self.emitted.pop</title>
<g id="a_node39"><a xlink:title="self.emitted.pop">
<path fill="#c8c8ff" stroke="black" d="M932,-54C932,-54 843,-54 843,-54 837,-54 831,-48 831,-42 831,-42 831,-30 831,-30 831,-24 837,-18 843,-18 843,-18 932,-18 932,-18 938,-18 944,-24 944,-30 944,-30 944,-42 944,-42 944,-48 938,-54 932,-54"/>
<text text-anchor="middle" x="887.5" y="-33.5" font-family="DejaVu Sans Mono" font-size="10.00">self.emitted.pop</text>
</a>
</g>
</g>
<!-- self.emitted\n &#160;&#160;&#160;&#160;&#160;&#160;&#160;&#160;&#160;&#160;&#160;&#160;&#160;&#160;&#160;.push -->
<g id="node40" class="node">
<title>self.emitted\n &#160;&#160;&#160;&#160;&#160;&#160;&#160;&#160;&#160;&#160;&#160;&#160;&#160;&#160;&#160;.push</title>
<g id="a_node40"><a xlink:title="self.emitted&#10; &#160;&#160;&#160;&#160;&#160;&#160;&#160;&#160;&#160;&#160;&#160;&#160;&#160;&#160;&#160;.push">
<path fill="#c8c8ff" stroke="black" d="M1093,-54C1093,-54 974,-54 974,-54 968,-54 962,-48 962,-42 962,-42 962,-30 962,-30 962,-24 968,-18 974,-18 974,-18 1093,-18 1093,-18 1099,-18 1105,-24 1105,-30 1105,-30 1105,-42 1105,-42 1105,-48 1099,-54 1093,-54"/>
<text text-anchor="middle" x="1033.5" y="-39" font-family="DejaVu Sans Mono" font-size="10.00">self.emitted</text>
<text text-anchor="middle" x="1033.5" y="-28" font-family="DejaVu Sans Mono" font-size="10.00"> &#160;&#160;&#160;&#160;&#160;&#160;&#160;&#160;&#160;&#160;&#160;&#160;&#160;&#160;&#160;.push</text>
</a>
</g>
</g>
<!-- self.token.clone -->
<g id="node41" class="node">
<title>self.token.clone</title>
<g id="a_node41"><a xlink:title="self.token.clone">
<path fill="#c8c8ff" stroke="black" d="M1224,-54C1224,-54 1135,-54 1135,-54 1129,-54 1123,-48 1123,-42 1123,-42 1123,-30 1123,-30 1123,-24 1129,-18 1135,-18 1135,-18 1224,-18 1224,-18 1230,-18 1236,-24 1236,-30 1236,-30 1236,-42 1236,-42 1236,-48 1230,-54 1224,-54"/>
<text text-anchor="middle" x="1179.5" y="-33.5" font-family="DejaVu Sans Mono" font-size="10.00">self.token.clone</text>
</a>
</g>
</g>
<!-- self.emitted.len -->
<g id="node42" class="node">
<title>self.emitted.len</title>
<g id="a_node42"><a xlink:title="self.emitted.len">
<path fill="#c8c8ff" stroke="black" d="M1355,-54C1355,-54 1266,-54 1266,-54 1260,-54 1254,-48 1254,-42 1254,-42 1254,-30 1254,-30 1254,-24 1260,-18 1266,-18 1266,-18 1355,-18 1355,-18 1361,-18 1367,-24 1367,-30 1367,-30 1367,-42 1367,-42 1367,-48 1361,-54 1355,-54"/>
<text text-anchor="middle" x="1310.5" y="-33.5" font-family="DejaVu Sans Mono" font-size="10.00">self.emitted.len</text>
</a>
</g>
</g>
<!-- self.emitted\n &#160;&#160;&#160;&#160;&#160;&#160;&#160;&#160;&#160;&#160;&#160;&#160;&#160;&#160;&#160;&#160;&#160;&#160;&#160;.push -->
<g id="node43" class="node">
<title>self.emitted\n &#160;&#160;&#160;&#160;&#160;&#160;&#160;&#160;&#160;&#160;&#160;&#160;&#160;&#160;&#160;&#160;&#160;&#160;&#160;.push</title>
<g id="a_node43"><a xlink:title="self.emitted&#10; &#160;&#160;&#160;&#160;&#160;&#160;&#160;&#160;&#160;&#160;&#160;&#160;&#160;&#160;&#160;&#160;&#160;&#160;&#160;.push">
<path fill="#c8c8ff" stroke="black" d="M1540,-54C1540,-54 1397,-54 1397,-54 1391,-54 1385,-48 1385,-42 1385,-42 1385,-30 1385,-30 1385,-24 1391,-18 1397,-18 1397,-18 1540,-18 1540,-18 1546,-18 1552,-24 1552,-30 1552,-30 1552,-42 1552,-42 1552,-48 1546,-54 1540,-54"/>
<text text-anchor="middle" x="1468.5" y="-39" font-family="DejaVu Sans Mono" font-size="10.00">self.emitted</text>
<text text-anchor="middle" x="1468.5" y="-28" font-family="DejaVu Sans Mono" font-size="10.00"> &#160;&#160;&#160;&#160;&#160;&#160;&#160;&#160;&#160;&#160;&#160;&#160;&#160;&#160;&#160;&#160;&#160;&#160;&#160;.push</text>
</a>
</g>
</g>
<!-- self.stmt -->
<g id="node44" class="node">
<title>self.stmt</title>
<g id="a_node44"><a xlink:title="self.stmt">
<path fill="#c8c8ff" stroke="black" d="M1629,-54C1629,-54 1582,-54 1582,-54 1576,-54 1570,-48 1570,-42 1570,-42 1570,-30 1570,-30 1570,-24 1576,-18 1582,-18 1582,-18 1629,-18 1629,-18 1635,-18 1641,-24 1641,-30 1641,-30 1641,-42 1641,-42 1641,-48 1635,-54 1629,-54"/>
<text text-anchor="middle" x="1605.5" y="-33.5" font-family="DejaVu Sans Mono" font-size="10.00">self.stmt</text>
</a>
</g>
</g>
<!-- self.chars.get(self.position).copied -->
<g id="node45" class="node">
<title>self.chars.get(self.position).copied</title>
<g id="a_node45"><a xlink:title="self.chars.get(self.position).copied">
<path fill="#c8c8ff" stroke="black" d="M1880,-54C1880,-54 1671,-54 1671,-54 1665,-54 1659,-48 1659,-42 1659,-42 1659,-30 1659,-30 1659,-24 1665,-18 1671,-18 1671,-18 1880,-18 1880,-18 1886,-18 1892,-24 1892,-30 1892,-30 1892,-42 1892,-42 1892,-48 1886,-54 1880,-54"/>
<text text-anchor="middle" x="1775.5" y="-33.5" font-family="DejaVu Sans Mono" font-size="10.00">self.chars.get(self.position).copied</text>
</a>
</g>
</g>
<!-- self.chars.get -->
<g id="node46" class="node">
<title>self.chars.get</title>
<g id="a_node46"><a xlink:title="self.chars.get">
<path fill="#c8c8ff" stroke="black" d="M1999,-54C1999,-54 1922,-54 1922,-54 1916,-54 1910,-48 1910,-42 1910,-42 1910,-30 1910,-30 1910,-24 1916,-18 1922,-18 1922,-18 1999,-18 1999,-18 2005,-18 2011,-24 2011,-30 2011,-30 2011,-42 2011,-42 2011,-48 2005,-54 1999,-54"/>
<text text-anchor="middle" x="1960.5" y="-33.5" font-family="DejaVu Sans Mono" font-size="10.00">self.chars.get</text>
</a>
</g>
</g>
<!-- self.chars.get(self.position + 1).copied -->
<g id="node47" class="node">
<title>self.chars.get(self.position + 1).copied</title>
<g id="a_node47"><a xlink:title="self.chars.get(self.position + 1).copied">
<path fill="#c8c8ff" stroke="black" d="M2274,-54C2274,-54 2041,-54 2041,-54 2035,-54 2029,-48 2029,-42 2029,-42 2029,-30 2029,-30 2029,-24 2035,-18 2041,-18 2041,-18 2274,-18 2274,-18 2280,-18 2286,-24 2286,-30 2286,-30 2286,-42 2286,-42 2286,-48 2280,-54 2274,-54"/>
<text text-anchor="middle" x="2157.5" y="-33.5" font-family="DejaVu Sans Mono" font-size="10.00">self.chars.get(self.position + 1).copied</text>
</a>
</g>
</g>
<!-- c.is_ascii_hexdigit -->
<g id="node48" class="node">
<title>c.is_ascii_hexdigit</title>
<g id="a_node48"><a xlink:title="c.is_ascii_hexdigit">
<path fill="#c8c8ff" stroke="black" d="M2423,-54C2423,-54 2316,-54 2316,-54 2310,-54 2304,-48 2304,-42 2304,-42 2304,-30 2304,-30 2304,-24 2310,-18 2316,-18 2316,-18 2423,-18 2423,-18 2429,-18 2435,-24 2435,-30 2435,-30 2435,-42 2435,-42 2435,-48 2429,-54 2423,-54"/>
<text text-anchor="middle" x="2369.5" y="-33.5" font-family="DejaVu Sans Mono" font-size="10.00">c.is_ascii_hexdigit</text>
</a>
</g>
</g>
<!-- (&#39;0&#39;..=&#39;7&#39;).contains -->
<g id="node49" class="node">
<title>(&#39;0&#39;..=&#39;7&#39;).contains</title>
<g id="a_node49"><a xlink:title="(&#39;0&#39;..=&#39;7&#39;).contains">
<path fill="#c8c8ff" stroke="black" d="M2578,-54C2578,-54 2465,-54 2465,-54 2459,-54 2453,-48 2453,-42 2453,-42 2453,-30 2453,-30 2453,-24 2459,-18 2465,-18 2465,-18 2578,-18 2578,-18 2584,-18 2590,-24 2590,-30 2590,-30 2590,-42 2590,-42 2590,-48 2584,-54 2578,-54"/>
<text text-anchor="middle" x="2521.5" y="-33.5" font-family="DejaVu Sans Mono" font-size="10.00">(&#39;0&#39;..=&#39;7&#39;).contains</text>
</a>
</g>
</g>
<!-- buf.push -->
<g id="node50" class="node">
<title>buf.push</title>
<g id="a_node50"><a xlink:title="buf.push">
<path fill="#c8c8ff" stroke="black" d="M2661,-54C2661,-54 2620,-54 2620,-54 2614,-54 2608,-48 2608,-42 2608,-42 2608,-30 2608,-30 2608,-24 2614,-18 2620,-18 2620,-18 2661,-18 2661,-18 2667,-18 2673,-24 2673,-30 2673,-30 2673,-42 2673,-42 2673,-48 2667,-54 2661,-54"/>
<text text-anchor="middle" x="2640.5" y="-33.5" font-family="DejaVu Sans Mono" font-size="10.00">buf.push</text>
</a>
</g>
</g>
<!-- self.token_text.len -->
<g id="node51" class="node">
<title>self.token_text.len</title>
<g id="a_node51"><a xlink:title="self.token_text.len">
<path fill="#c8c8ff" stroke="black" d="M2810,-54C2810,-54 2703,-54 2703,-54 2697,-54 2691,-48 2691,-42 2691,-42 2691,-30 2691,-30 2691,-24 2697,-18 2703,-18 2703,-18 2810,-18 2810,-18 2816,-18 2822,-24 2822,-30 2822,-30 2822,-42 2822,-42 2822,-48 2816,-54 2810,-54"/>
<text text-anchor="middle" x="2756.5" y="-33.5" font-family="DejaVu Sans Mono" font-size="10.00">self.token_text.len</text>
</a>
</g>
</g>
<!-- buf.chars().next().unwrap_or -->
<g id="node52" class="node">
<title>buf.chars().next().unwrap_or</title>
<g id="a_node52"><a xlink:title="buf.chars().next().unwrap_or">
<path fill="#c8c8ff" stroke="black" d="M3013,-54C3013,-54 2852,-54 2852,-54 2846,-54 2840,-48 2840,-42 2840,-42 2840,-30 2840,-30 2840,-24 2846,-18 2852,-18 2852,-18 3013,-18 3013,-18 3019,-18 3025,-24 3025,-30 3025,-30 3025,-42 3025,-42 3025,-48 3019,-54 3013,-54"/>
<text text-anchor="middle" x="2932.5" y="-33.5" font-family="DejaVu Sans Mono" font-size="10.00">buf.chars().next().unwrap_or</text>
</a>
</g>
</g>
<!-- buf.chars().next -->
<g id="node53" class="node">
<title>buf.chars().next</title>
<g id="a_node53"><a xlink:title="buf.chars().next">
<path fill="#c8c8ff" stroke="black" d="M3144,-54C3144,-54 3055,-54 3055,-54 3049,-54 3043,-48 3043,-42 3043,-42 3043,-30 3043,-30 3043,-24 3049,-18 3055,-18 3055,-18 3144,-18 3144,-18 3150,-18 3156,-24 3156,-30 3156,-30 3156,-42 3156,-42 3156,-48 3150,-54 3144,-54"/>
<text text-anchor="middle" x="3099.5" y="-33.5" font-family="DejaVu Sans Mono" font-size="10.00">buf.chars().next</text>
</a>
</g>
</g>
<!-- buf.chars -->
<g id="node54" class="node">
<title>buf.chars</title>
<g id="a_node54"><a xlink:title="buf.chars">
<path fill="#c8c8ff" stroke="black" d="M3233,-54C3233,-54 3186,-54 3186,-54 3180,-54 3174,-48 3174,-42 3174,-42 3174,-30 3174,-30 3174,-24 3180,-18 3186,-18 3186,-18 3233,-18 3233,-18 3239,-18 3245,-24 3245,-30 3245,-30 3245,-42 3245,-42 3245,-48 3239,-54 3233,-54"/>
<text text-anchor="middle" x="3209.5" y="-33.5" font-family="DejaVu Sans Mono" font-size="10.00">buf.chars</text>
</a>
</g>
</g>
<!-- src::main: -->
<g id="node55" class="node">
<title>src::main:</title>
<path fill="#e8f0fe" stroke="black" d="M287,-126C287,-126 234,-126 234,-126 228,-126 222,-120 222,-114 222,-114 222,-102 222,-102 222,-96 228,-90 234,-90 234,-90 287,-90 287,-90 293,-90 299,-96 299,-102 299,-102 299,-114 299,-114 299,-120 293,-126 287,-126"/>
<text text-anchor="middle" x="260.5" y="-105.5" font-family="DejaVu Sans Mono" font-size="10.00">src::main:</text>
</g>
<!-- src::main:&#45;&gt;args.len -->
<g id="edge3" class="edge">
<title>src::main::run&#45;&gt;args.len</title>
<path fill="none" stroke="#555555" d="M294.5,-89.83C294.5,-68.5 294.5,-36 294.5,-36 294.5,-36 297.56,-36 297.56,-36"/>
<polygon fill="#555555" stroke="#555555" points="297.56,-39.5 307.56,-36 297.56,-32.5 297.56,-39.5"/>
</g>
<!-- src::main:&#45;&gt;src::main: -->
<g id="edge5" class="edge">
<title>src::main::run&#45;&gt;src::main::Ok</title>
<path fill="none" stroke="#555555" d="M260.5,-126.18C260.5,-126.7 260.5,-127 260.5,-127 260.5,-127 217.25,-127 217.25,-127 217.25,-127 217.25,-56 217.25,-56 217.25,-56 229.2,-56 229.2,-56 229.2,-56 229.2,-79.81 229.2,-79.81"/>
<polygon fill="#555555" stroke="#555555" points="225.7,-79.81 229.2,-89.81 232.7,-79.81 225.7,-79.81"/>
</g>
<!-- env: -->
<g id="node56" class="node">
<title>env:</title>
<path fill="#e8f0fe" stroke="black" d="M200.5,-54C200.5,-54 170.5,-54 170.5,-54 164.5,-54 158.5,-48 158.5,-42 158.5,-42 158.5,-30 158.5,-30 158.5,-24 164.5,-18 170.5,-18 170.5,-18 200.5,-18 200.5,-18 206.5,-18 212.5,-24 212.5,-30 212.5,-30 212.5,-42 212.5,-42 212.5,-48 206.5,-54 200.5,-54"/>
<text text-anchor="middle" x="185.5" y="-33.5" font-family="DejaVu Sans Mono" font-size="10.00">env:</text>
</g>
<!-- src::main:&#45;&gt;env: -->
<g id="edge1" class="edge">
<title>src::main::run&#45;&gt;env::args().collect</title>
<path fill="none" stroke="#555555" d="M225.6,-89.97C225.6,-70.42 225.6,-42 225.6,-42 225.6,-42 222.91,-42 222.91,-42"/>
<polygon fill="#555555" stroke="#555555" points="222.91,-38.5 212.91,-42 222.91,-45.5 222.91,-38.5"/>
</g>
<!-- src::main:&#45;&gt;env: -->
<g id="edge2" class="edge">
<title>src::main::run&#45;&gt;env::args</title>
<path fill="none" stroke="#555555" d="M227.4,-89.91C227.4,-66.87 227.4,-30 227.4,-30 227.4,-30 222.75,-30 222.75,-30"/>
<polygon fill="#555555" stroke="#555555" points="222.75,-26.5 212.75,-30 222.75,-33.5 222.75,-26.5"/>
</g>
<!-- macro!: -->
<g id="node57" class="node">
<title>macro!:</title>
<path fill="#e8f0fe" stroke="black" d="M438,-54C438,-54 403,-54 403,-54 397,-54 391,-48 391,-42 391,-42 391,-30 391,-30 391,-24 397,-18 403,-18 403,-18 438,-18 438,-18 444,-18 450,-24 450,-30 450,-30 450,-42 450,-42 450,-48 444,-54 438,-54"/>
<text text-anchor="middle" x="420.5" y="-33.5" font-family="DejaVu Sans Mono" font-size="10.00">macro!:</text>
</g>
<!-- src::main:&#45;&gt;macro!: -->
<g id="edge4" class="edge">
<title>src::main::run&#45;&gt;macro!::println</title>
<path fill="none" stroke="#555555" d="M299.22,-114C342.88,-114 407.86,-114 407.86,-114 407.86,-114 407.86,-64.09 407.86,-64.09"/>
<polygon fill="#555555" stroke="#555555" points="411.36,-64.09 407.86,-54.09 404.36,-64.09 411.36,-64.09"/>
</g>
<!-- src::main:&#45;&gt;macro!: -->
<g id="edge9" class="edge">
<title>src::main::main&#45;&gt;macro!::eprintln</title>
<path fill="none" stroke="#555555" d="M299.2,-102C340.31,-102 399.43,-102 399.43,-102 399.43,-102 399.43,-64.03 399.43,-64.03"/>
<polygon fill="#555555" stroke="#555555" points="402.93,-64.03 399.43,-54.03 395.93,-64.03 402.93,-64.03"/>
</g>
<!-- c4::C4: -->
<g id="node58" class="node">
<title>c4::C4:</title>
<path fill="#e8f0fe" stroke="black" d="M278,-54C278,-54 243,-54 243,-54 237,-54 231,-48 231,-42 231,-42 231,-30 231,-30 231,-24 237,-18 243,-18 243,-18 278,-18 278,-18 284,-18 290,-24 290,-30 290,-30 290,-42 290,-42 290,-48 284,-54 278,-54"/>
<text text-anchor="middle" x="260.5" y="-33.5" font-family="DejaVu Sans Mono" font-size="10.00">c4::C4:</text>
</g>
<!-- src::main:&#45;&gt;c4::C4: -->
<g id="edge6" class="edge">
<title>src::main::run&#45;&gt;c4::C4::main(&amp;args).map</title>
<path fill="none" stroke="#555555" d="M260.5,-89.83C260.5,-89.83 260.5,-64.41 260.5,-64.41"/>
<polygon fill="#555555" stroke="#555555" points="264,-64.41 260.5,-54.41 257,-64.41 264,-64.41"/>
</g>
<!-- src::main:&#45;&gt;c4::C4: -->
<g id="edge7" class="edge">
<title>src::main::run&#45;&gt;c4::C4::main</title>
<path fill="none" stroke="#555555" d="M275.25,-89.83C275.25,-89.83 275.25,-64.41 275.25,-64.41"/>
<polygon fill="#555555" stroke="#555555" points="278.75,-64.41 275.25,-54.41 271.75,-64.41 278.75,-64.41"/>
</g>
<!-- Main: -->
<g id="node59" class="node">
<title>Main:</title>
<path fill="#e8f0fe" stroke="black" d="M44.5,-54C44.5,-54 14.5,-54 14.5,-54 8.5,-54 2.5,-48 2.5,-42 2.5,-42 2.5,-30 2.5,-30 2.5,-24 8.5,-18 14.5,-18 14.5,-18 44.5,-18 44.5,-18 50.5,-18 56.5,-24 56.5,-30 56.5,-30 56.5,-42 56.5,-42 56.5,-48 50.5,-54 44.5,-54"/>
<text text-anchor="middle" x="29.5" y="-33.5" font-family="DejaVu Sans Mono" font-size="10.00">Main:</text>
</g>
<!-- src::main:&#45;&gt;Main: -->
<g id="edge8" class="edge">
<title>src::main::main&#45;&gt;Main::run</title>
<path fill="none" stroke="#555555" d="M245.75,-89.76C245.75,-74.43 245.75,-55 245.75,-55 245.75,-55 29.5,-55 29.5,-55 29.5,-55 29.5,-54.92 29.5,-54.92"/>
<polygon fill="#555555" stroke="#555555" points="33,-64.18 29.5,-54.18 26,-64.18 33,-64.18"/>
</g>
<!-- process: -->
<g id="node60" class="node">
<title>process:</title>
<path fill="#e8f0fe" stroke="black" d="M128,-54C128,-54 87,-54 87,-54 81,-54 75,-48 75,-42 75,-42 75,-30 75,-30 75,-24 81,-18 87,-18 87,-18 128,-18 128,-18 134,-18 140,-24 140,-30 140,-30 140,-42 140,-42 140,-48 134,-54 128,-54"/>
<text text-anchor="middle" x="107.5" y="-33.5" font-family="DejaVu Sans Mono" font-size="10.00">process:</text>
</g>
<!-- src::main:&#45;&gt;process: -->
<g id="edge10" class="edge">
<title>src::main::main&#45;&gt;process::exit</title>
<path fill="none" stroke="#555555" d="M223.8,-89.72C223.8,-74.05 223.8,-54 223.8,-54 223.8,-54 150.25,-54 150.25,-54"/>
<polygon fill="#555555" stroke="#555555" points="150.25,-50.5 140.25,-54 150.25,-57.5 150.25,-50.5"/>
</g>
<!-- src::hello: -->
<g id="node61" class="node">
<title>src::hello:</title>
<path fill="#e8f0fe" stroke="black" d="M545,-126C545,-126 486,-126 486,-126 480,-126 474,-120 474,-114 474,-114 474,-102 474,-102 474,-96 480,-90 486,-90 486,-90 545,-90 545,-90 551,-90 557,-96 557,-102 557,-102 557,-114 557,-114 557,-120 551,-126 545,-126"/>
<text text-anchor="middle" x="515.5" y="-105.5" font-family="DejaVu Sans Mono" font-size="10.00">src::hello:</text>
</g>
<!-- src::hello:&#45;&gt;&quot;hello, world\n&quot;.to_string -->
<g id="edge11" class="edge">
<title>src::hello::main&#45;&gt;&quot;hello, world\n&quot;.to_string</title>
<path fill="none" stroke="#555555" d="M515.5,-89.83C515.5,-89.83 515.5,-64.41 515.5,-64.41"/>
<polygon fill="#555555" stroke="#555555" points="519,-64.41 515.5,-54.41 512,-64.41 519,-64.41"/>
</g>
<!-- src::c4: -->
<g id="node62" class="node">
<title>src::c4:</title>
<path fill="#e8f0fe" stroke="black" d="M3857,-126C3857,-126 3816,-126 3816,-126 3810,-126 3804,-120 3804,-114 3804,-114 3804,-102 3804,-102 3804,-96 3810,-90 3816,-90 3816,-90 3857,-90 3857,-90 3863,-90 3869,-96 3869,-102 3869,-102 3869,-114 3869,-114 3869,-120 3863,-126 3857,-126"/>
<text text-anchor="middle" x="3836.5" y="-105.5" font-family="DejaVu Sans Mono" font-size="10.00">src::c4:</text>
</g>
<!-- src::c4:&#45;&gt;args.len -->
<g id="edge19" class="edge">
<title>src::c4::run_c_4&#45;&gt;args.len</title>
<path fill="none" stroke="#555555" d="M3840.5,-89.68C3840.5,-58.87 3840.5,0 3840.5,0 3840.5,0 340.5,0 340.5,0 340.5,0 340.5,-7.58 340.5,-7.58"/>
<polygon fill="#555555" stroke="#555555" points="337,-7.58 340.5,-17.58 344,-7.58 337,-7.58"/>
</g>
<!-- src::c4:&#45;&gt;&quot;hello, world\n&quot;.to_string -->
<g id="edge37" class="edge">
<title>src::c4::run_hello&#45;&gt;&quot;hello, world\n&quot;.to_string</title>
<path fill="none" stroke="#555555" d="M3803.93,-124C3463.65,-124 572,-124 572,-124 572,-124 572,-36 572,-36 572,-36 571.12,-36 571.12,-36"/>
<polygon fill="#555555" stroke="#555555" points="573.17,-32.5 563.17,-36 573.17,-39.5 573.17,-32.5"/>
</g>
<!-- src::c4:&#45;&gt;message.into -->
<g id="edge12" class="edge">
<title>src::c4::new&#45;&gt;message.into</title>
<path fill="none" stroke="#555555" d="M3833.44,-126C3833.44,-126 3833.44,-88 3833.44,-88 3833.44,-88 7016.5,-88 7016.5,-88 7016.5,-88 7016.5,-64.19 7016.5,-64.19"/>
<polygon fill="#555555" stroke="#555555" points="7020,-64.19 7016.5,-54.19 7013,-64.19 7020,-64.19"/>
</g>
<!-- src::c4:&#45;&gt;&quot;./c4&#45;c&quot;.to_string -->
<g id="edge23" class="edge">
<title>src::c4::run_c_4&#45;&gt;&quot;./c4&#45;c&quot;.to_string</title>
<path fill="none" stroke="#555555" d="M3869.04,-92C3909.24,-92 3972.36,-92 3972.36,-92 3972.36,-92 3972.36,-64.03 3972.36,-64.03"/>
<polygon fill="#555555" stroke="#555555" points="3975.86,-64.03 3972.36,-54.03 3968.86,-64.03 3975.86,-64.03"/>
</g>
<!-- src::c4:&#45;&gt;status.success -->
<g id="edge29" class="edge">
<title>src::c4::run_c_4&#45;&gt;status.success</title>
<path fill="none" stroke="#555555" d="M3869.24,-112C3942.35,-112 4112.5,-112 4112.5,-112 4112.5,-112 4112.5,-64.01 4112.5,-64.01"/>
<polygon fill="#555555" stroke="#555555" points="4116,-64.01 4112.5,-54.01 4109,-64.01 4116,-64.01"/>
</g>
<!-- src::c4:&#45;&gt;c4.next().map_err -->
<g id="edge34" class="edge">
<title>src::c4::run_c_4&#45;&gt;c4.next().map_err</title>
<path fill="none" stroke="#555555" d="M3842,-89.93C3842,-80.54 3842,-71 3842,-71 3842,-71 4237.75,-71 4237.75,-71 4237.75,-71 4237.75,-64.32 4237.75,-64.32"/>
<polygon fill="#555555" stroke="#555555" points="4241.25,-64.32 4237.75,-54.32 4234.25,-64.32 4241.25,-64.32"/>
</g>
<!-- src::c4:&#45;&gt;c4.next -->
<g id="edge35" class="edge">
<title>src::c4::run_c_4&#45;&gt;c4.next</title>
<path fill="none" stroke="#555555" d="M3843.5,-89.58C3843.5,-80.72 3843.5,-72 3843.5,-72 3843.5,-72 4378.25,-72 4378.25,-72 4378.25,-72 4378.25,-64.42 4378.25,-64.42"/>
<polygon fill="#555555" stroke="#555555" points="4381.75,-64.42 4378.25,-54.42 4374.75,-64.42 4381.75,-64.42"/>
</g>
<!-- src::c4:&#45;&gt;e.to_string -->
<g id="edge36" class="edge">
<title>src::c4::run_c_4&#45;&gt;e.to_string</title>
<path fill="none" stroke="#555555" d="M3845,-89.68C3845,-81.21 3845,-73 3845,-73 3845,-73 4464.5,-73 4464.5,-73 4464.5,-73 4464.5,-64.07 4464.5,-64.07"/>
<polygon fill="#555555" stroke="#555555" points="4468,-64.07 4464.5,-54.07 4461,-64.07 4468,-64.07"/>
</g>
<!-- src::c4:&#45;&gt;source.chars().collect -->
<g id="edge13" class="edge">
<title>src::c4::new&#45;&gt;source.chars().collect</title>
<path fill="none" stroke="#555555" d="M3834.72,-126C3834.72,-126 3834.72,-89 3834.72,-89 3834.72,-89 7153.5,-89 7153.5,-89 7153.5,-89 7153.5,-64.24 7153.5,-64.24"/>
<polygon fill="#555555" stroke="#555555" points="7157,-64.24 7153.5,-54.24 7150,-64.24 7157,-64.24"/>
</g>
<!-- src::c4:&#45;&gt;source.chars -->
<g id="edge14" class="edge">
<title>src::c4::new&#45;&gt;source.chars</title>
<path fill="none" stroke="#555555" d="M3857.18,-126C3857.18,-126 3857.18,-154 3857.18,-154 3857.18,-154 4789.5,-154 4789.5,-154 4789.5,-154 4789.5,-64.18 4789.5,-64.18"/>
<polygon fill="#555555" stroke="#555555" points="4793,-64.18 4789.5,-54.18 4786,-64.18 4793,-64.18"/>
</g>
<!-- src::c4:&#45;&gt;self.token_text.clear -->
<g id="edge38" class="edge">
<title>src::c4::next&#45;&gt;self.token_text.clear</title>
<path fill="none" stroke="#555555" d="M3869.5,-94C3869.5,-94 3983.73,-94 3983.73,-94 3983.73,-94 3983.73,-74 3983.73,-74 3983.73,-74 4924.5,-74 4924.5,-74 4924.5,-74 4924.5,-64.11 4924.5,-64.11"/>
<polygon fill="#555555" stroke="#555555" points="4928,-64.11 4924.5,-54.11 4921,-64.11 4928,-64.11"/>
</g>
<!-- src::c4:&#45;&gt;self.peek_char -->
<g id="edge39" class="edge">
<title>src::c4::next&#45;&gt;self.peek_char</title>
<path fill="none" stroke="#555555" d="M3869.5,-100C3869.5,-100 4017.82,-100 4017.82,-100 4017.82,-100 4017.82,-76 4017.82,-76 4017.82,-76 5107.75,-76 5107.75,-76 5107.75,-76 5107.75,-64.13 5107.75,-64.13"/>
<polygon fill="#555555" stroke="#555555" points="5111.25,-64.13 5107.75,-54.13 5104.25,-64.13 5111.25,-64.13"/>
</g>
<!-- src::c4:&#45;&gt;self.peek_char -->
<g id="edge87" class="edge">
<title>src::c4::scan_number&#45;&gt;self.peek_char</title>
<path fill="none" stroke="#555555" d="M3869.27,-98C3918.66,-98 4006.45,-98 4006.45,-98 4006.45,-98 4006.45,-76 4006.45,-76 4006.45,-76 5082.5,-76 5082.5,-76 5082.5,-76 5082.5,-64.13 5082.5,-64.13"/>
<polygon fill="#555555" stroke="#555555" points="5086,-64.13 5082.5,-54.13 5079,-64.13 5086,-64.13"/>
</g>
<!-- src::c4:&#45;&gt;self.peek_char -->
<g id="edge96" class="edge">
<title>src::c4::scan_string_or_char&#45;&gt;self.peek_char</title>
<path fill="none" stroke="#555555" d="M3869.36,-96C3915.81,-96 3995.09,-96 3995.09,-96 3995.09,-96 3995.09,-75 3995.09,-75 3995.09,-75 5057.25,-75 5057.25,-75 5057.25,-75 5057.25,-64.13 5057.25,-64.13"/>
<polygon fill="#555555" stroke="#555555" points="5060.75,-64.13 5057.25,-54.13 5053.75,-64.13 5060.75,-64.13"/>
</g>
<!-- src::c4:&#45;&gt;self.peek_next_char -->
<g id="edge41" class="edge">
<title>src::c4::next&#45;&gt;self.peek_next_char</title>
<path fill="none" stroke="#555555" d="M3869.5,-102C3869.5,-102 4029.18,-102 4029.18,-102 4029.18,-102 4029.18,-77 4029.18,-77 4029.18,-77 5216.5,-77 5216.5,-77 5216.5,-77 5216.5,-64.1 5216.5,-64.1"/>
<polygon fill="#555555" stroke="#555555" points="5220,-64.1 5216.5,-54.1 5213,-64.1 5220,-64.1"/>
</g>
<!-- src::c4:&#45;&gt;c.is_ascii_alphabetic -->
<g id="edge43" class="edge">
<title>src::c4::next&#45;&gt;c.is_ascii_alphabetic</title>
<path fill="none" stroke="#555555" d="M3869.5,-104C3869.5,-104 4040.55,-104 4040.55,-104 4040.55,-104 4040.55,-78 4040.55,-78 4040.55,-78 5371.5,-78 5371.5,-78 5371.5,-78 5371.5,-64.06 5371.5,-64.06"/>
<polygon fill="#555555" stroke="#555555" points="5375,-64.06 5371.5,-54.06 5368,-64.06 5375,-64.06"/>
</g>
<!-- src::c4:&#45;&gt;c2.is_ascii_alphanumeric -->
<g id="edge44" class="edge">
<title>src::c4::next&#45;&gt;c2.is_ascii_alphanumeric</title>
<path fill="none" stroke="#555555" d="M3869.5,-106C3869.5,-106 4051.91,-106 4051.91,-106 4051.91,-106 4051.91,-79 4051.91,-79 4051.91,-79 5541.5,-79 5541.5,-79 5541.5,-79 5541.5,-64.49 5541.5,-64.49"/>
<polygon fill="#555555" stroke="#555555" points="5545,-64.49 5541.5,-54.49 5538,-64.49 5545,-64.49"/>
</g>
<!-- src::c4:&#45;&gt;self.chars[start..self.position].iter().collect -->
<g id="edge45" class="edge">
<title>src::c4::next&#45;&gt;self.chars[start..self.position].iter().collect</title>
<path fill="none" stroke="#555555" d="M3869.5,-108C3869.5,-108 4063.27,-108 4063.27,-108 4063.27,-108 4063.27,-80 4063.27,-80 4063.27,-80 5789.5,-80 5789.5,-80 5789.5,-80 5789.5,-64.15 5789.5,-64.15"/>
<polygon fill="#555555" stroke="#555555" points="5793,-64.15 5789.5,-54.15 5786,-64.15 5793,-64.15"/>
</g>
<!-- src::c4:&#45;&gt;self.chars[start..self.position].iter -->
<g id="edge46" class="edge">
<title>src::c4::next&#45;&gt;self.chars[start..self.position].iter</title>
<path fill="none" stroke="#555555" d="M3869.5,-110C3869.5,-110 4074.64,-110 4074.64,-110 4074.64,-110 4074.64,-80 4074.64,-80 4074.64,-80 6076.5,-80 6076.5,-80 6076.5,-80 6076.5,-64.15 6076.5,-64.15"/>
<polygon fill="#555555" stroke="#555555" points="6080,-64.15 6076.5,-54.15 6073,-64.15 6080,-64.15"/>
</g>
<!-- src::c4:&#45;&gt;self.token_text.as_str -->
<g id="edge47" class="edge">
<title>src::c4::next&#45;&gt;self.token_text.as_str</title>
<path fill="none" stroke="#555555" d="M3848,-126C3848,-126 3848,-81 3848,-81 3848,-81 6288.5,-81 6288.5,-81 6288.5,-81 6288.5,-64.04 6288.5,-64.04"/>
<polygon fill="#555555" stroke="#555555" points="6292,-64.04 6288.5,-54.04 6285,-64.04 6292,-64.04"/>
</g>
<!-- src::c4:&#45;&gt;c.is_ascii_digit -->
<g id="edge48" class="edge">
<title>src::c4::next&#45;&gt;c.is_ascii_digit</title>
<path fill="none" stroke="#555555" d="M3849.5,-126C3849.5,-126 3849.5,-83 3849.5,-83 3849.5,-83 6456.33,-83 6456.33,-83 6456.33,-83 6456.33,-64.04 6456.33,-64.04"/>
<polygon fill="#555555" stroke="#555555" points="6459.83,-64.04 6456.33,-54.04 6452.83,-64.04 6459.83,-64.04"/>
</g>
<!-- src::c4:&#45;&gt;c.is_ascii_digit -->
<g id="edge90" class="edge">
<title>src::c4::scan_number&#45;&gt;c.is_ascii_digit</title>
<path fill="none" stroke="#555555" d="M3824.48,-89.94C3824.48,-85.51 3824.48,-82 3824.48,-82 3824.48,-82 6418.67,-82 6418.67,-82 6418.67,-82 6418.67,-64.18 6418.67,-64.18"/>
<polygon fill="#555555" stroke="#555555" points="6422.17,-64.18 6418.67,-54.18 6415.17,-64.18 6422.17,-64.18"/>
</g>
<!-- src::c4:&#45;&gt;self.scan_number -->
<g id="edge49" class="edge">
<title>src::c4::next&#45;&gt;self.scan_number</title>
<path fill="none" stroke="#555555" d="M3825.76,-126C3825.76,-126 3825.76,-83 3825.76,-83 3825.76,-83 6568.5,-83 6568.5,-83 6568.5,-83 6568.5,-64.04 6568.5,-64.04"/>
<polygon fill="#555555" stroke="#555555" points="6572,-64.04 6568.5,-54.04 6565,-64.04 6572,-64.04"/>
</g>
<!-- src::c4:&#45;&gt;self.scan_string_or_char -->
<g id="edge50" class="edge">
<title>src::c4::next&#45;&gt;self.scan_string_or_char</title>
<path fill="none" stroke="#555555" d="M3827.04,-126C3827.04,-126 3827.04,-84 3827.04,-84 3827.04,-84 6723.5,-84 6723.5,-84 6723.5,-84 6723.5,-64.15 6723.5,-64.15"/>
<polygon fill="#555555" stroke="#555555" points="6727,-64.15 6723.5,-54.15 6720,-64.15 6727,-64.15"/>
</g>
<!-- src::c4:&#45;&gt;self.emitted.push -->
<g id="edge53" class="edge">
<title>src::c4::expr&#45;&gt;self.emitted.push</title>
<path fill="none" stroke="#555555" d="M3846.5,-89.68C3846.5,-81.21 3846.5,-73 3846.5,-73 3846.5,-73 4551.25,-73 4551.25,-73 4551.25,-73 4551.25,-64.07 4551.25,-64.07"/>
<polygon fill="#555555" stroke="#555555" points="4554.75,-64.07 4551.25,-54.07 4547.75,-64.07 4554.75,-64.07"/>
</g>
<!-- src::c4:&#45;&gt;self.emitted.push -->
<g id="edge77" class="edge">
<title>src::c4::stmt&#45;&gt;self.emitted.push</title>
<path fill="none" stroke="#555555" d="M3866.05,-126.1C3866.05,-137.09 3866.05,-149 3866.05,-149 3866.05,-149 4573.5,-149 4573.5,-149 4573.5,-149 4573.5,-64.16 4573.5,-64.16"/>
<polygon fill="#555555" stroke="#555555" points="4577,-64.16 4573.5,-54.16 4570,-64.16 4577,-64.16"/>
</g>
<!-- src::c4:&#45;&gt;self.next -->
<g id="edge55" class="edge">
<title>src::c4::expr&#45;&gt;self.next</title>
<path fill="none" stroke="#555555" d="M3860.14,-126.15C3860.14,-138.27 3860.14,-152 3860.14,-152 3860.14,-152 4720.5,-152 4720.5,-152 4720.5,-152 4720.5,-64.12 4720.5,-64.12"/>
<polygon fill="#555555" stroke="#555555" points="4724,-64.12 4720.5,-54.12 4717,-64.13 4724,-64.12"/>
</g>
<!-- src::c4:&#45;&gt;self.next -->
<g id="edge73" class="edge">
<title>src::c4::stmt&#45;&gt;self.next</title>
<path fill="none" stroke="#555555" d="M3863.09,-126.49C3863.09,-138.14 3863.09,-151 3863.09,-151 3863.09,-151 4714.5,-151 4714.5,-151 4714.5,-151 4714.5,-64.22 4714.5,-64.22"/>
<polygon fill="#555555" stroke="#555555" points="4718,-64.22 4714.5,-54.22 4711,-64.22 4718,-64.22"/>
</g>
<!-- src::c4:&#45;&gt;self.token_text.clone -->
<g id="edge56" class="edge">
<title>src::c4::expr&#45;&gt;self.token_text.clone</title>
<path fill="none" stroke="#555555" d="M3803.95,-123C3468.46,-123 652.5,-123 652.5,-123 652.5,-123 652.5,-64.03 652.5,-64.03"/>
<polygon fill="#555555" stroke="#555555" points="656,-64.03 652.5,-54.03 649,-64.03 656,-64.03"/>
</g>
<!-- src::c4:&#45;&gt;self.expr -->
<g id="edge57" class="edge">
<title>src::c4::expr&#45;&gt;self.expr</title>
<path fill="none" stroke="#555555" d="M3803.83,-122C3474.49,-122 765.67,-122 765.67,-122 765.67,-122 765.67,-64.24 765.67,-64.24"/>
<polygon fill="#555555" stroke="#555555" points="769.17,-64.24 765.67,-54.24 762.17,-64.24 769.17,-64.24"/>
</g>
<!-- src::c4:&#45;&gt;self.expr -->
<g id="edge76" class="edge">
<title>src::c4::stmt&#45;&gt;self.expr</title>
<path fill="none" stroke="#555555" d="M3803.83,-120C3475.88,-120 789.33,-120 789.33,-120 789.33,-120 789.33,-64.23 789.33,-64.23"/>
<polygon fill="#555555" stroke="#555555" points="792.83,-64.23 789.33,-54.23 785.83,-64.23 792.83,-64.23"/>
</g>
<!-- src::c4:&#45;&gt;self.emitted.pop -->
<g id="edge62" class="edge">
<title>src::c4::expr&#45;&gt;self.emitted.pop</title>
<path fill="none" stroke="#555555" d="M3803.89,-119C3482.1,-119 887.5,-119 887.5,-119 887.5,-119 887.5,-64.01 887.5,-64.01"/>
<polygon fill="#555555" stroke="#555555" points="891,-64.01 887.5,-54.01 884,-64.01 891,-64.01"/>
</g>
<!-- src::c4:&#45;&gt;self.emitted\n &#160;&#160;&#160;&#160;&#160;&#160;&#160;&#160;&#160;&#160;&#160;&#160;&#160;&#160;&#160;.push -->
<g id="edge63" class="edge">
<title>src::c4::expr&#45;&gt;self.emitted\n &#160;&#160;&#160;&#160;&#160;&#160;&#160;&#160;&#160;&#160;&#160;&#160;&#160;&#160;&#160;.push</title>
<path fill="none" stroke="#555555" d="M3803.56,-118C3489.38,-118 1033.5,-118 1033.5,-118 1033.5,-118 1033.5,-64.2 1033.5,-64.2"/>
<polygon fill="#555555" stroke="#555555" points="1037,-64.2 1033.5,-54.2 1030,-64.2 1037,-64.2"/>
</g>
<!-- src::c4:&#45;&gt;self.token.clone -->
<g id="edge64" class="edge">
<title>src::c4::expr&#45;&gt;self.token.clone</title>
<path fill="none" stroke="#555555" d="M3803.86,-117C3500.18,-117 1179.5,-117 1179.5,-117 1179.5,-117 1179.5,-64.38 1179.5,-64.38"/>
<polygon fill="#555555" stroke="#555555" points="1183,-64.38 1179.5,-54.38 1176,-64.38 1183,-64.38"/>
</g>
<!-- src::c4:&#45;&gt;self.emitted.len -->
<g id="edge66" class="edge">
<title>src::c4::expr&#45;&gt;self.emitted.len</title>
<path fill="none" stroke="#555555" d="M3803.86,-115C3507.42,-115 1291.67,-115 1291.67,-115 1291.67,-115 1291.67,-64.32 1291.67,-64.32"/>
<polygon fill="#555555" stroke="#555555" points="1295.17,-64.32 1291.67,-54.32 1288.17,-64.32 1295.17,-64.32"/>
</g>
<!-- src::c4:&#45;&gt;self.emitted.len -->
<g id="edge79" class="edge">
<title>src::c4::stmt&#45;&gt;self.emitted.len</title>
<path fill="none" stroke="#555555" d="M3803.88,-114C3510,-114 1329.33,-114 1329.33,-114 1329.33,-114 1329.33,-64.09 1329.33,-64.09"/>
<polygon fill="#555555" stroke="#555555" points="1332.83,-64.09 1329.33,-54.09 1325.83,-64.09 1332.83,-64.09"/>
</g>
<!-- src::c4:&#45;&gt;self.emitted\n &#160;&#160;&#160;&#160;&#160;&#160;&#160;&#160;&#160;&#160;&#160;&#160;&#160;&#160;&#160;&#160;&#160;&#160;&#160;.push -->
<g id="edge69" class="edge">
<title>src::c4::expr&#45;&gt;self.emitted\n &#160;&#160;&#160;&#160;&#160;&#160;&#160;&#160;&#160;&#160;&#160;&#160;&#160;&#160;&#160;&#160;&#160;&#160;&#160;.push</title>
<path fill="none" stroke="#555555" d="M3803.93,-113C3519.51,-113 1468.5,-113 1468.5,-113 1468.5,-113 1468.5,-64.25 1468.5,-64.25"/>
<polygon fill="#555555" stroke="#555555" points="1472,-64.25 1468.5,-54.25 1465,-64.25 1472,-64.25"/>
</g>
<!-- src::c4:&#45;&gt;self.stmt -->
<g id="edge80" class="edge">
<title>src::c4::stmt&#45;&gt;self.stmt</title>
<path fill="none" stroke="#555555" d="M3869.24,-114C3897.03,-114 3932.43,-114 3932.43,-114 3932.43,-114 3932.43,-60 3932.43,-60 3932.43,-60 1605.5,-60 1605.5,-60 1605.5,-60 1605.5,-59.42 1605.5,-59.42"/>
<polygon fill="#555555" stroke="#555555" points="1609,-64.19 1605.5,-54.19 1602,-64.19 1609,-64.19"/>
</g>
<!-- src::c4:&#45;&gt;self.chars.get(self.position).copied -->
<g id="edge83" class="edge">
<title>src::c4::peek_char&#45;&gt;self.chars.get(self.position).copied</title>
<path fill="none" stroke="#555555" d="M3869.26,-116C3893.33,-116 3921.86,-116 3921.86,-116 3921.86,-116 3921.86,-60 3921.86,-60 3921.86,-60 1775.5,-60 1775.5,-60 1775.5,-60 1775.5,-59.42 1775.5,-59.42"/>
<polygon fill="#555555" stroke="#555555" points="1779,-64.19 1775.5,-54.19 1772,-64.19 1779,-64.19"/>
</g>
<!-- src::c4:&#45;&gt;self.chars.get -->
<g id="edge84" class="edge">
<title>src::c4::peek_char&#45;&gt;self.chars.get</title>
<path fill="none" stroke="#555555" d="M3869.36,-118C3885.16,-118 3900.71,-118 3900.71,-118 3900.71,-118 3900.71,-59 3900.71,-59 3900.71,-59 1943.67,-59 1943.67,-59 1943.67,-59 1943.67,-58.51 1943.67,-58.51"/>
<polygon fill="#555555" stroke="#555555" points="1947.17,-64.12 1943.67,-54.12 1940.17,-64.12 1947.17,-64.12"/>
</g>
<!-- src::c4:&#45;&gt;self.chars.get -->
<g id="edge86" class="edge">
<title>src::c4::peek_next_char&#45;&gt;self.chars.get</title>
<path fill="none" stroke="#555555" d="M3869.08,-120C3889.24,-120 3911.29,-120 3911.29,-120 3911.29,-120 3911.29,-58 3911.29,-58 3911.29,-58 1977.33,-58 1977.33,-58 1977.33,-58 1977.33,-57.62 1977.33,-57.62"/>
<polygon fill="#555555" stroke="#555555" points="1980.83,-64.17 1977.33,-54.17 1973.83,-64.17 1980.83,-64.17"/>
</g>
<!-- src::c4:&#45;&gt;self.chars.get(self.position + 1).copied -->
<g id="edge85" class="edge">
<title>src::c4::peek_next_char&#45;&gt;self.chars.get(self.position + 1).copied</title>
<path fill="none" stroke="#555555" d="M3869.25,-122C3880.42,-122 3890.14,-122 3890.14,-122 3890.14,-122 3890.14,-57 3890.14,-57 3890.14,-57 2157.5,-57 2157.5,-57 2157.5,-57 2157.5,-56.71 2157.5,-56.71"/>
<polygon fill="#555555" stroke="#555555" points="2161,-64.08 2157.5,-54.08 2154,-64.08 2161,-64.08"/>
</g>
<!-- src::c4:&#45;&gt;c.is_ascii_hexdigit -->
<g id="edge93" class="edge">
<title>src::c4::scan_number&#45;&gt;c.is_ascii_hexdigit</title>
<path fill="none" stroke="#555555" d="M3869.15,-124C3875.15,-124 3879.57,-124 3879.57,-124 3879.57,-124 3879.57,-57 3879.57,-57 3879.57,-57 2369.5,-57 2369.5,-57 2369.5,-57 2369.5,-56.71 2369.5,-56.71"/>
<polygon fill="#555555" stroke="#555555" points="2373,-64.08 2369.5,-54.08 2366,-64.08 2373,-64.08"/>
</g>
<!-- src::c4:&#45;&gt;(&#39;0&#39;..=&#39;7&#39;).contains -->
<g id="edge94" class="edge">
<title>src::c4::scan_number&#45;&gt;(&#39;0&#39;..=&#39;7&#39;).contains</title>
<path fill="none" stroke="#555555" d="M3803.99,-111C3601.5,-111 2521.5,-111 2521.5,-111 2521.5,-111 2521.5,-64.16 2521.5,-64.16"/>
<polygon fill="#555555" stroke="#555555" points="2525,-64.16 2521.5,-54.16 2518,-64.16 2525,-64.16"/>
</g>
<!-- src::c4:&#45;&gt;buf.push -->
<g id="edge99" class="edge">
<title>src::c4::scan_string_or_char&#45;&gt;buf.push</title>
<path fill="none" stroke="#555555" d="M3803.89,-110C3612.21,-110 2640.5,-110 2640.5,-110 2640.5,-110 2640.5,-64.29 2640.5,-64.29"/>
<polygon fill="#555555" stroke="#555555" points="2644,-64.29 2640.5,-54.29 2637,-64.29 2644,-64.29"/>
</g>
<!-- src::c4:&#45;&gt;self.token_text.len -->
<g id="edge101" class="edge">
<title>src::c4::scan_string_or_char&#45;&gt;self.token_text.len</title>
<path fill="none" stroke="#555555" d="M3803.88,-109C3623.53,-109 2756.5,-109 2756.5,-109 2756.5,-109 2756.5,-64.04 2756.5,-64.04"/>
<polygon fill="#555555" stroke="#555555" points="2760,-64.04 2756.5,-54.04 2753,-64.04 2760,-64.04"/>
</g>
<!-- src::c4:&#45;&gt;buf.chars().next().unwrap_or -->
<g id="edge102" class="edge">
<title>src::c4::scan_string_or_char&#45;&gt;buf.chars().next().unwrap_or</title>
<path fill="none" stroke="#555555" d="M3803.79,-108C3641.72,-108 2932.5,-108 2932.5,-108 2932.5,-108 2932.5,-64.17 2932.5,-64.17"/>
<polygon fill="#555555" stroke="#555555" points="2936,-64.17 2932.5,-54.17 2929,-64.17 2936,-64.17"/>
</g>
<!-- src::c4:&#45;&gt;buf.chars().next -->
<g id="edge103" class="edge">
<title>src::c4::scan_string_or_char&#45;&gt;buf.chars().next</title>
<path fill="none" stroke="#555555" d="M3803.88,-106C3661.25,-106 3099.5,-106 3099.5,-106 3099.5,-106 3099.5,-64.03 3099.5,-64.03"/>
<polygon fill="#555555" stroke="#555555" points="3103,-64.03 3099.5,-54.03 3096,-64.03 3103,-64.03"/>
</g>
<!-- src::c4:&#45;&gt;buf.chars -->
<g id="edge104" class="edge">
<title>src::c4::scan_string_or_char&#45;&gt;buf.chars</title>
<path fill="none" stroke="#555555" d="M3803.67,-105C3674.66,-105 3209.5,-105 3209.5,-105 3209.5,-105 3209.5,-64.13 3209.5,-64.13"/>
<polygon fill="#555555" stroke="#555555" points="3213,-64.13 3209.5,-54.13 3206,-64.13 3213,-64.13"/>
</g>
<!-- src::c4:&#45;&gt;macro!: -->
<g id="edge17" class="edge">
<title>src::c4::fmt&#45;&gt;macro!::write</title>
<path fill="none" stroke="#555555" d="M3854.23,-126.19C3854.23,-141.18 3854.23,-160 3854.23,-160 3854.23,-160 416.29,-160 416.29,-160 416.29,-160 416.29,-64.03 416.29,-64.03"/>
<polygon fill="#555555" stroke="#555555" points="419.79,-64.03 416.29,-54.03 412.79,-64.03 419.79,-64.03"/>
</g>
<!-- src::c4:&#45;&gt;macro!: -->
<g id="edge28" class="edge">
<title>src::c4::run_c_4&#45;&gt;macro!::format</title>
<path fill="none" stroke="#555555" d="M3851.27,-126.05C3851.27,-140.37 3851.27,-158 3851.27,-158 3851.27,-158 424.71,-158 424.71,-158 424.71,-158 424.71,-64 424.71,-64"/>
<polygon fill="#555555" stroke="#555555" points="428.21,-64 424.71,-54 421.21,-64 428.21,-64"/>
</g>
<!-- src::c4:&#45;&gt;macro!: -->
<g id="edge70" class="edge">
<title>src::c4::expr&#45;&gt;macro!::format</title>
<path fill="none" stroke="#555555" d="M3848.32,-126.25C3848.32,-140.18 3848.32,-157 3848.32,-157 3848.32,-157 433.14,-157 433.14,-157 433.14,-157 433.14,-64.11 433.14,-64.11"/>
<polygon fill="#555555" stroke="#555555" points="436.64,-64.11 433.14,-54.11 429.64,-64.11 436.64,-64.11"/>
</g>
<!-- src::c4:&#45;&gt;macro!: -->
<g id="edge92" class="edge">
<title>src::c4::scan_number&#45;&gt;macro!::matches</title>
<path fill="none" stroke="#555555" d="M3845.36,-126.04C3845.36,-139.29 3845.36,-155 3845.36,-155 3845.36,-155 441.57,-155 441.57,-155 441.57,-155 441.57,-64.07 441.57,-64.07"/>
<polygon fill="#555555" stroke="#555555" points="445.07,-64.07 441.57,-54.07 438.07,-64.07 445.07,-64.07"/>
</g>
<!-- src::c4:&#45;&gt;src::c4: -->
<g id="edge30" class="edge">
<title>src::c4::run_c_4&#45;&gt;src::c4::Ok</title>
<path fill="none" stroke="#555555" d="M3806.95,-126.08C3806.95,-127.85 3806.95,-129 3806.95,-129 3806.95,-129 3801.64,-129 3801.64,-129 3801.64,-129 3801.64,-70 3801.64,-70 3801.64,-70 3805.28,-70 3805.28,-70 3805.28,-70 3805.28,-79.89 3805.28,-79.89"/>
<polygon fill="#555555" stroke="#555555" points="3801.78,-79.89 3805.28,-89.89 3808.78,-79.89 3801.78,-79.89"/>
</g>
<!-- src::c4:&#45;&gt;src::c4: -->
<g id="edge33" class="edge">
<title>src::c4::run_c_4&#45;&gt;src::c4::Err</title>
<path fill="none" stroke="#555555" d="M3809.91,-126.17C3809.91,-128.45 3809.91,-130 3809.91,-130 3809.91,-130 3799.29,-130 3799.29,-130 3799.29,-130 3799.29,-70 3799.29,-70 3799.29,-70 3806.56,-70 3806.56,-70 3806.56,-70 3806.56,-79.89 3806.56,-79.89"/>
<polygon fill="#555555" stroke="#555555" points="3803.06,-79.89 3806.56,-89.89 3810.06,-79.89 3803.06,-79.89"/>
</g>
<!-- src::c4:&#45;&gt;src::c4: -->
<g id="edge40" class="edge">
<title>src::c4::next&#45;&gt;src::c4::Ok</title>
<path fill="none" stroke="#555555" d="M3812.86,-126C3812.86,-126 3812.86,-132 3812.86,-132 3812.86,-132 3796.93,-132 3796.93,-132 3796.93,-132 3796.93,-69 3796.93,-69 3796.93,-69 3807.84,-69 3807.84,-69 3807.84,-69 3807.84,-79.87 3807.84,-79.87"/>
<polygon fill="#555555" stroke="#555555" points="3804.34,-79.87 3807.84,-89.87 3811.34,-79.87 3804.34,-79.87"/>
</g>
<!-- src::c4:&#45;&gt;src::c4: -->
<g id="edge42" class="edge">
<title>src::c4::next&#45;&gt;src::c4::Some</title>
<path fill="none" stroke="#555555" d="M3815.82,-126C3815.82,-126 3815.82,-133 3815.82,-133 3815.82,-133 3794.57,-133 3794.57,-133 3794.57,-133 3794.57,-68 3794.57,-68 3794.57,-68 3809.12,-68 3809.12,-68 3809.12,-68 3809.12,-79.87 3809.12,-79.87"/>
<polygon fill="#555555" stroke="#555555" points="3805.62,-79.87 3809.12,-89.87 3812.62,-79.87 3805.62,-79.87"/>
</g>
<!-- src::c4:&#45;&gt;src::c4: -->
<g id="edge51" class="edge">
<title>src::c4::expr&#45;&gt;src::c4::Err</title>
<path fill="none" stroke="#555555" d="M3818.77,-126.16C3818.77,-131.04 3818.77,-135 3818.77,-135 3818.77,-135 3792.21,-135 3792.21,-135 3792.21,-135 3792.21,-67 3792.21,-67 3792.21,-67 3810.4,-67 3810.4,-67 3810.4,-67 3810.4,-79.9 3810.4,-79.9"/>
<polygon fill="#555555" stroke="#555555" points="3806.9,-79.9 3810.4,-89.9 3813.9,-79.9 3806.9,-79.9"/>
</g>
<!-- src::c4:&#45;&gt;src::c4: -->
<g id="edge71" class="edge">
<title>src::c4::expr&#45;&gt;src::c4::Ok</title>
<path fill="none" stroke="#555555" d="M3821.73,-126.21C3821.73,-131.55 3821.73,-136 3821.73,-136 3821.73,-136 3789.86,-136 3789.86,-136 3789.86,-136 3789.86,-67 3789.86,-67 3789.86,-67 3811.68,-67 3811.68,-67 3811.68,-67 3811.68,-79.9 3811.68,-79.9"/>
<polygon fill="#555555" stroke="#555555" points="3808.18,-79.9 3811.68,-89.9 3815.18,-79.9 3808.18,-79.9"/>
</g>
<!-- src::c4:&#45;&gt;src::c4: -->
<g id="edge74" class="edge">
<title>src::c4::stmt&#45;&gt;src::c4::Err</title>
<path fill="none" stroke="#555555" d="M3824.68,-126.14C3824.68,-132.46 3824.68,-138 3824.68,-138 3824.68,-138 3787.5,-138 3787.5,-138 3787.5,-138 3787.5,-66 3787.5,-66 3787.5,-66 3812.96,-66 3812.96,-66 3812.96,-66 3812.96,-79.94 3812.96,-79.94"/>
<polygon fill="#555555" stroke="#555555" points="3809.46,-79.94 3812.96,-89.94 3816.46,-79.94 3809.46,-79.94"/>
</g>
<!-- src::c4:&#45;&gt;src::c4: -->
<g id="edge82" class="edge">
<title>src::c4::stmt&#45;&gt;src::c4::Ok</title>
<path fill="none" stroke="#555555" d="M3827.64,-126.24C3827.64,-133.43 3827.64,-140 3827.64,-140 3827.64,-140 3785.14,-140 3785.14,-140 3785.14,-140 3785.14,-65 3785.14,-65 3785.14,-65 3814.24,-65 3814.24,-65 3814.24,-65 3814.24,-79.51 3814.24,-79.51"/>
<polygon fill="#555555" stroke="#555555" points="3810.74,-79.51 3814.24,-89.51 3817.74,-79.51 3810.74,-79.51"/>
</g>
<!-- src::c4:&#45;&gt;src::c4: -->
<g id="edge88" class="edge">
<title>src::c4::scan_number&#45;&gt;src::c4::Err</title>
<path fill="none" stroke="#555555" d="M3830.59,-126.04C3830.59,-133.75 3830.59,-141 3830.59,-141 3830.59,-141 3782.79,-141 3782.79,-141 3782.79,-141 3782.79,-64 3782.79,-64 3782.79,-64 3815.52,-64 3815.52,-64 3815.52,-64 3815.52,-79.85 3815.52,-79.85"/>
<polygon fill="#555555" stroke="#555555" points="3812.02,-79.85 3815.52,-89.85 3819.02,-79.85 3812.02,-79.85"/>
</g>
<!-- src::c4:&#45;&gt;src::c4: -->
<g id="edge91" class="edge">
<title>src::c4::scan_number&#45;&gt;src::c4::Ok</title>
<path fill="none" stroke="#555555" d="M3833.55,-126.32C3833.55,-134.79 3833.55,-143 3833.55,-143 3833.55,-143 3780.43,-143 3780.43,-143 3780.43,-143 3780.43,-63 3780.43,-63 3780.43,-63 3816.8,-63 3816.8,-63 3816.8,-63 3816.8,-79.96 3816.8,-79.96"/>
<polygon fill="#555555" stroke="#555555" points="3813.3,-79.96 3816.8,-89.96 3820.3,-79.96 3813.3,-79.96"/>
</g>
<!-- src::c4:&#45;&gt;src::c4: -->
<g id="edge97" class="edge">
<title>src::c4::scan_string_or_char&#45;&gt;src::c4::Err</title>
<path fill="none" stroke="#555555" d="M3836.5,-126.42C3836.5,-135.28 3836.5,-144 3836.5,-144 3836.5,-144 3778.07,-144 3778.07,-144 3778.07,-144 3778.07,-63 3778.07,-63 3778.07,-63 3818.08,-63 3818.08,-63 3818.08,-63 3818.08,-79.96 3818.08,-79.96"/>
<polygon fill="#555555" stroke="#555555" points="3814.58,-79.96 3818.08,-89.96 3821.58,-79.96 3814.58,-79.96"/>
</g>
<!-- src::c4:&#45;&gt;src::c4: -->
<g id="edge100" class="edge">
<title>src::c4::scan_string_or_char&#45;&gt;src::c4::Some</title>
<path fill="none" stroke="#555555" d="M3839.45,-126.11C3839.45,-135.9 3839.45,-146 3839.45,-146 3839.45,-146 3775.71,-146 3775.71,-146 3775.71,-146 3775.71,-62 3775.71,-62 3775.71,-62 3819.36,-62 3819.36,-62 3819.36,-62 3819.36,-79.82 3819.36,-79.82"/>
<polygon fill="#555555" stroke="#555555" points="3815.86,-79.82 3819.36,-89.82 3822.86,-79.82 3815.86,-79.82"/>
</g>
<!-- src::c4:&#45;&gt;src::c4: -->
<g id="edge105" class="edge">
<title>src::c4::scan_string_or_char&#45;&gt;src::c4::Ok</title>
<path fill="none" stroke="#555555" d="M3842.41,-126.13C3842.41,-136.31 3842.41,-147 3842.41,-147 3842.41,-147 3773.36,-147 3773.36,-147 3773.36,-147 3773.36,-61 3773.36,-61 3773.36,-61 3820.64,-61 3820.64,-61 3820.64,-61 3820.64,-79.96 3820.64,-79.96"/>
<polygon fill="#555555" stroke="#555555" points="3817.14,-79.96 3820.64,-89.96 3824.14,-79.96 3817.14,-79.96"/>
</g>
<!-- String: -->
<g id="node63" class="node">
<title>String:</title>
<path fill="#e8f0fe" stroke="black" d="M6869,-54C6869,-54 6834,-54 6834,-54 6828,-54 6822,-48 6822,-42 6822,-42 6822,-30 6822,-30 6822,-24 6828,-18 6834,-18 6834,-18 6869,-18 6869,-18 6875,-18 6881,-24 6881,-30 6881,-30 6881,-42 6881,-42 6881,-48 6875,-54 6869,-54"/>
<text text-anchor="middle" x="6851.5" y="-33.5" font-family="DejaVu Sans Mono" font-size="10.00">String:</text>
</g>
<!-- src::c4:&#45;&gt;String: -->
<g id="edge15" class="edge">
<title>src::c4::new&#45;&gt;String::new</title>
<path fill="none" stroke="#555555" d="M3830.88,-126C3830.88,-126 3830.88,-86 3830.88,-86 3830.88,-86 6866.25,-86 6866.25,-86 6866.25,-86 6866.25,-64 6866.25,-64"/>
<polygon fill="#555555" stroke="#555555" points="6869.75,-64 6866.25,-54 6862.75,-64 6869.75,-64"/>
</g>
<!-- src::c4:&#45;&gt;String: -->
<g id="edge32" class="edge">
<title>src::c4::run_c_4&#45;&gt;String::new</title>
<path fill="none" stroke="#555555" d="M3829.6,-89.83C3829.6,-87.55 3829.6,-86 3829.6,-86 3829.6,-86 6851.5,-86 6851.5,-86 6851.5,-86 6851.5,-64 6851.5,-64"/>
<polygon fill="#555555" stroke="#555555" points="6855,-64 6851.5,-54 6848,-64 6855,-64"/>
</g>
<!-- src::c4:&#45;&gt;String: -->
<g id="edge95" class="edge">
<title>src::c4::scan_string_or_char&#45;&gt;String::new</title>
<path fill="none" stroke="#555555" d="M3828.32,-89.88C3828.32,-87.03 3828.32,-85 3828.32,-85 3828.32,-85 6836.75,-85 6836.75,-85 6836.75,-85 6836.75,-64 6836.75,-64"/>
<polygon fill="#555555" stroke="#555555" points="6840.25,-64 6836.75,-54 6833.25,-64 6840.25,-64"/>
</g>
<!-- Vec: -->
<g id="node64" class="node">
<title>Vec:</title>
<path fill="#e8f0fe" stroke="black" d="M6941.5,-54C6941.5,-54 6911.5,-54 6911.5,-54 6905.5,-54 6899.5,-48 6899.5,-42 6899.5,-42 6899.5,-30 6899.5,-30 6899.5,-24 6905.5,-18 6911.5,-18 6911.5,-18 6941.5,-18 6941.5,-18 6947.5,-18 6953.5,-24 6953.5,-30 6953.5,-30 6953.5,-42 6953.5,-42 6953.5,-48 6947.5,-54 6941.5,-54"/>
<text text-anchor="middle" x="6926.5" y="-33.5" font-family="DejaVu Sans Mono" font-size="10.00">Vec:</text>
</g>
<!-- src::c4:&#45;&gt;Vec: -->
<g id="edge16" class="edge">
<title>src::c4::new&#45;&gt;Vec::new</title>
<path fill="none" stroke="#555555" d="M3832.16,-126C3832.16,-126 3832.16,-87 3832.16,-87 3832.16,-87 6926.5,-87 6926.5,-87 6926.5,-87 6926.5,-64 6926.5,-64"/>
<polygon fill="#555555" stroke="#555555" points="6930,-64 6926.5,-54 6923,-64 6930,-64"/>
</g>
<!-- Self: -->
<g id="node65" class="node">
<title>Self:</title>
<path fill="#e8f0fe" stroke="black" d="M3305.5,-54C3305.5,-54 3275.5,-54 3275.5,-54 3269.5,-54 3263.5,-48 3263.5,-42 3263.5,-42 3263.5,-30 3263.5,-30 3263.5,-24 3269.5,-18 3275.5,-18 3275.5,-18 3305.5,-18 3305.5,-18 3311.5,-18 3317.5,-24 3317.5,-30 3317.5,-30 3317.5,-42 3317.5,-42 3317.5,-48 3311.5,-54 3305.5,-54"/>
<text text-anchor="middle" x="3290.5" y="-33.5" font-family="DejaVu Sans Mono" font-size="10.00">Self:</text>
</g>
<!-- src::c4:&#45;&gt;Self: -->
<g id="edge18" class="edge">
<title>src::c4::main&#45;&gt;Self::run_c_4</title>
<path fill="none" stroke="#555555" d="M3803.84,-104C3683.86,-104 3274.3,-104 3274.3,-104 3274.3,-104 3274.3,-64.22 3274.3,-64.22"/>
<polygon fill="#555555" stroke="#555555" points="3277.8,-64.22 3274.3,-54.22 3270.8,-64.22 3277.8,-64.22"/>
</g>
<!-- src::c4:&#45;&gt;Self: -->
<g id="edge31" class="edge">
<title>src::c4::run_c_4&#45;&gt;Self::new</title>
<path fill="none" stroke="#555555" d="M3803.66,-102C3684.95,-102 3285.1,-102 3285.1,-102 3285.1,-102 3285.1,-64 3285.1,-64"/>
<polygon fill="#555555" stroke="#555555" points="3288.6,-64 3285.1,-54 3281.6,-64 3288.6,-64"/>
</g>
<!-- src::c4:&#45;&gt;Self: -->
<g id="edge58" class="edge">
<title>src::c4::expr&#45;&gt;Self::precedence</title>
<path fill="none" stroke="#555555" d="M3803.9,-101C3687.02,-101 3295.9,-101 3295.9,-101 3295.9,-101 3295.9,-64.11 3295.9,-64.11"/>
<polygon fill="#555555" stroke="#555555" points="3299.4,-64.11 3295.9,-54.11 3292.4,-64.11 3299.4,-64.11"/>
</g>
<!-- src::c4:&#45;&gt;Self: -->
<g id="edge72" class="edge">
<title>src::c4::stmt&#45;&gt;Self::precedence</title>
<path fill="none" stroke="#555555" d="M3803.76,-100C3688.25,-100 3306.7,-100 3306.7,-100 3306.7,-100 3306.7,-64.17 3306.7,-64.17"/>
<polygon fill="#555555" stroke="#555555" points="3310.2,-64.17 3306.7,-54.17 3303.2,-64.17 3310.2,-64.17"/>
</g>
<!-- std::env::var(&quot;C_BIN&quot;)\n &#160;&#160;&#160;&#160;&#160;&#160;&#160;&#160;&#160;&#160;&#160;&#160;&#160;&#160;&#160;.or_else(|_| std::env: -->
<g id="node66" class="node">
<title>std::env::var(&quot;C_BIN&quot;)\n &#160;&#160;&#160;&#160;&#160;&#160;&#160;&#160;&#160;&#160;&#160;&#160;&#160;&#160;&#160;.or_else(|_| std::env:</title>
<path fill="#e8f0fe" stroke="black" d="M3569,-54C3569,-54 3348,-54 3348,-54 3342,-54 3336,-48 3336,-42 3336,-42 3336,-30 3336,-30 3336,-24 3342,-18 3348,-18 3348,-18 3569,-18 3569,-18 3575,-18 3581,-24 3581,-30 3581,-30 3581,-42 3581,-42 3581,-48 3575,-54 3569,-54"/>
<text text-anchor="middle" x="3458.5" y="-39" font-family="DejaVu Sans Mono" font-size="10.00">std::env::var(&quot;C_BIN&quot;)</text>
<text text-anchor="middle" x="3458.5" y="-28" font-family="DejaVu Sans Mono" font-size="10.00"> &#160;&#160;&#160;&#160;&#160;&#160;&#160;&#160;&#160;&#160;&#160;&#160;&#160;&#160;&#160;.or_else(|_| std::env:</text>
</g>
<!-- src::c4:&#45;&gt;std::env::var(&quot;C_BIN&quot;)\n &#160;&#160;&#160;&#160;&#160;&#160;&#160;&#160;&#160;&#160;&#160;&#160;&#160;&#160;&#160;.or_else(|_| std::env: -->
<g id="edge20" class="edge">
<title>src::c4::run_c_4&#45;&gt;std::env::var(&quot;C_BIN&quot;)\n &#160;&#160;&#160;&#160;&#160;&#160;&#160;&#160;&#160;&#160;&#160;&#160;&#160;&#160;&#160;.or_else(|_| std::env::var(&quot;C_WRAPPER_BIN&quot;))\n &#160;&#160;&#160;&#160;&#160;&#160;&#160;&#160;&#160;&#160;&#160;&#160;&#160;&#160;&#160;.unwrap_or_else</title>
<path fill="none" stroke="#555555" d="M3803.94,-99C3712.26,-99 3458.5,-99 3458.5,-99 3458.5,-99 3458.5,-64.22 3458.5,-64.22"/>
<polygon fill="#555555" stroke="#555555" points="3462,-64.22 3458.5,-54.22 3455,-64.22 3462,-64.22"/>
</g>
<!-- std::env: -->
<g id="node67" class="node">
<title>std::env:</title>
<path fill="#e8f0fe" stroke="black" d="M3658,-54C3658,-54 3611,-54 3611,-54 3605,-54 3599,-48 3599,-42 3599,-42 3599,-30 3599,-30 3599,-24 3605,-18 3611,-18 3611,-18 3658,-18 3658,-18 3664,-18 3670,-24 3670,-30 3670,-30 3670,-42 3670,-42 3670,-48 3664,-54 3658,-54"/>
<text text-anchor="middle" x="3634.5" y="-33.5" font-family="DejaVu Sans Mono" font-size="10.00">std::env:</text>
</g>
<!-- src::c4:&#45;&gt;std::env: -->
<g id="edge21" class="edge">
<title>src::c4::run_c_4&#45;&gt;std::env::var(&quot;C_BIN&quot;)\n &#160;&#160;&#160;&#160;&#160;&#160;&#160;&#160;&#160;&#160;&#160;&#160;&#160;&#160;&#160;.or_else</title>
<path fill="none" stroke="#555555" d="M3803.56,-97C3743.58,-97 3622.67,-97 3622.67,-97 3622.67,-97 3622.67,-64.3 3622.67,-64.3"/>
<polygon fill="#555555" stroke="#555555" points="3626.17,-64.3 3622.67,-54.3 3619.17,-64.3 3626.17,-64.3"/>
</g>
<!-- src::c4:&#45;&gt;std::env: -->
<g id="edge22" class="edge">
<title>src::c4::run_c_4&#45;&gt;std::env::var</title>
<path fill="none" stroke="#555555" d="M3803.81,-96C3749.44,-96 3646.33,-96 3646.33,-96 3646.33,-96 3646.33,-64 3646.33,-64"/>
<polygon fill="#555555" stroke="#555555" points="3649.83,-64 3646.33,-54 3642.83,-64 3649.83,-64"/>
</g>
<!-- Command: -->
<g id="node68" class="node">
<title>Command:</title>
<path fill="#e8f0fe" stroke="black" d="M3741,-54C3741,-54 3700,-54 3700,-54 3694,-54 3688,-48 3688,-42 3688,-42 3688,-30 3688,-30 3688,-24 3694,-18 3700,-18 3700,-18 3741,-18 3741,-18 3747,-18 3753,-24 3753,-30 3753,-30 3753,-42 3753,-42 3753,-48 3747,-54 3741,-54"/>
<text text-anchor="middle" x="3720.5" y="-33.5" font-family="DejaVu Sans Mono" font-size="10.00">Command:</text>
</g>
<!-- src::c4:&#45;&gt;Command: -->
<g id="edge24" class="edge">
<title>src::c4::run_c_4&#45;&gt;Command::new(&amp;c_bin)\n &#160;&#160;&#160;&#160;&#160;&#160;&#160;&#160;&#160;&#160;&#160;&#160;&#160;&#160;&#160;.args(&amp;args[1..])\n &#160;&#160;&#160;&#160;&#160;&#160;&#160;&#160;&#160;&#160;&#160;&#160;&#160;&#160;&#160;.status()\n &#160;&#160;&#160;&#160;&#160;&#160;&#160;&#160;&#160;&#160;&#160;&#160;&#160;&#160;&#160;.map_err</title>
<path fill="none" stroke="#555555" d="M3803.7,-95C3763.6,-95 3701,-95 3701,-95 3701,-95 3701,-64 3701,-64"/>
<polygon fill="#555555" stroke="#555555" points="3704.5,-64 3701,-54 3697.5,-64 3704.5,-64"/>
</g>
<!-- src::c4:&#45;&gt;Command: -->
<g id="edge25" class="edge">
<title>src::c4::run_c_4&#45;&gt;Command::new(&amp;c_bin)\n &#160;&#160;&#160;&#160;&#160;&#160;&#160;&#160;&#160;&#160;&#160;&#160;&#160;&#160;&#160;.args(&amp;args[1..])\n &#160;&#160;&#160;&#160;&#160;&#160;&#160;&#160;&#160;&#160;&#160;&#160;&#160;&#160;&#160;.status</title>
<path fill="none" stroke="#555555" d="M3803.99,-93C3767.7,-93 3714,-93 3714,-93 3714,-93 3714,-64 3714,-64"/>
<polygon fill="#555555" stroke="#555555" points="3717.5,-64 3714,-54 3710.5,-64 3717.5,-64"/>
</g>
<!-- src::c4:&#45;&gt;Command: -->
<g id="edge26" class="edge">
<title>src::c4::run_c_4&#45;&gt;Command::new(&amp;c_bin)\n &#160;&#160;&#160;&#160;&#160;&#160;&#160;&#160;&#160;&#160;&#160;&#160;&#160;&#160;&#160;.args</title>
<path fill="none" stroke="#555555" d="M3803.94,-92C3771.67,-92 3727,-92 3727,-92 3727,-92 3727,-64 3727,-64"/>
<polygon fill="#555555" stroke="#555555" points="3730.5,-64 3727,-54 3723.5,-64 3730.5,-64"/>
</g>
<!-- src::c4:&#45;&gt;Command: -->
<g id="edge27" class="edge">
<title>src::c4::run_c_4&#45;&gt;Command::new</title>
<path fill="none" stroke="#555555" d="M3803.83,-91C3775.83,-91 3740,-91 3740,-91 3740,-91 3740,-64 3740,-64"/>
<polygon fill="#555555" stroke="#555555" points="3743.5,-64 3740,-54 3736.5,-64 3743.5,-64"/>
</g>
<!-- C4Error: -->
<g id="node69" class="node">
<title>C4Error:</title>
<path fill="#e8f0fe" stroke="black" d="M3824,-54C3824,-54 3783,-54 3783,-54 3777,-54 3771,-48 3771,-42 3771,-42 3771,-30 3771,-30 3771,-24 3777,-18 3783,-18 3783,-18 3824,-18 3824,-18 3830,-18 3836,-24 3836,-30 3836,-30 3836,-42 3836,-42 3836,-48 3830,-54 3824,-54"/>
<text text-anchor="middle" x="3803.5" y="-33.5" font-family="DejaVu Sans Mono" font-size="10.00">C4Error:</text>
</g>
<!-- src::c4:&#45;&gt;C4Error: -->
<g id="edge52" class="edge">
<title>src::c4::expr&#45;&gt;C4Error::new</title>
<path fill="none" stroke="#555555" d="M3821.92,-89.72C3821.92,-89.72 3821.92,-64 3821.92,-64"/>
<polygon fill="#555555" stroke="#555555" points="3825.42,-64 3821.92,-54 3818.42,-64 3825.42,-64"/>
</g>
<!-- src::c4:&#45;&gt;C4Error: -->
<g id="edge75" class="edge">
<title>src::c4::stmt&#45;&gt;C4Error::new</title>
<path fill="none" stroke="#555555" d="M3823.2,-89.72C3823.2,-89.72 3823.2,-64 3823.2,-64"/>
<polygon fill="#555555" stroke="#555555" points="3826.7,-64 3823.2,-54 3819.7,-64 3826.7,-64"/>
</g>
<!-- src::c4:&#45;&gt;C4Error: -->
<g id="edge89" class="edge">
<title>src::c4::scan_number&#45;&gt;C4Error::new</title>
<path fill="none" stroke="#555555" d="M3837.5,-89.73C3837.5,-71.44 3837.5,-46 3837.5,-46 3837.5,-46 3837.4,-46 3837.4,-46"/>
<polygon fill="#555555" stroke="#555555" points="3846.5,-42.5 3836.5,-46 3846.5,-49.5 3846.5,-42.5"/>
</g>
<!-- src::c4:&#45;&gt;C4Error: -->
<g id="edge98" class="edge">
<title>src::c4::scan_string_or_char&#45;&gt;C4Error::new</title>
<path fill="none" stroke="#555555" d="M3839,-89.87C3839,-69.43 3839,-39 3839,-39 3839,-39 3838.75,-39 3838.75,-39"/>
<polygon fill="#555555" stroke="#555555" points="3846.5,-35.5 3836.5,-39 3846.5,-42.5 3846.5,-35.5"/>
</g>
<!-- Instruction: -->
<g id="node70" class="node">
<title>Instruction:</title>
<path fill="#e8f0fe" stroke="black" d="M3931,-54C3931,-54 3866,-54 3866,-54 3860,-54 3854,-48 3854,-42 3854,-42 3854,-30 3854,-30 3854,-24 3860,-18 3866,-18 3866,-18 3931,-18 3931,-18 3937,-18 3943,-24 3943,-30 3943,-30 3943,-42 3943,-42 3943,-48 3937,-54 3931,-54"/>
<text text-anchor="middle" x="3898.5" y="-33.5" font-family="DejaVu Sans Mono" font-size="10.00">Instruction:</text>
</g>
<!-- src::c4:&#45;&gt;Instruction: -->
<g id="edge54" class="edge">
<title>src::c4::expr&#45;&gt;Instruction::Imm</title>
<path fill="none" stroke="#555555" d="M3855.88,-89.83C3855.88,-89.83 3855.88,-64.41 3855.88,-64.41"/>
<polygon fill="#555555" stroke="#555555" points="3859.38,-64.41 3855.88,-54.41 3852.38,-64.41 3859.38,-64.41"/>
</g>
<!-- src::c4:&#45;&gt;Instruction: -->
<g id="edge59" class="edge">
<title>src::c4::expr&#45;&gt;Instruction::Call</title>
<path fill="none" stroke="#555555" d="M3857.75,-89.83C3857.75,-89.83 3857.75,-64.41 3857.75,-64.41"/>
<polygon fill="#555555" stroke="#555555" points="3861.25,-64.41 3857.75,-54.41 3854.25,-64.41 3861.25,-64.41"/>
</g>
<!-- src::c4:&#45;&gt;Instruction: -->
<g id="edge60" class="edge">
<title>src::c4::expr&#45;&gt;Instruction::Adjust</title>
<path fill="none" stroke="#555555" d="M3859.62,-89.83C3859.62,-89.83 3859.62,-64.41 3859.62,-64.41"/>
<polygon fill="#555555" stroke="#555555" points="3863.13,-64.41 3859.62,-54.41 3856.13,-64.41 3863.13,-64.41"/>
</g>
<!-- src::c4:&#45;&gt;Instruction: -->
<g id="edge61" class="edge">
<title>src::c4::expr&#45;&gt;Instruction::Address</title>
<path fill="none" stroke="#555555" d="M3861.5,-89.83C3861.5,-89.83 3861.5,-64.41 3861.5,-64.41"/>
<polygon fill="#555555" stroke="#555555" points="3865,-64.41 3861.5,-54.41 3858,-64.41 3865,-64.41"/>
</g>
<!-- src::c4:&#45;&gt;Instruction: -->
<g id="edge65" class="edge">
<title>src::c4::expr&#45;&gt;Instruction::BranchIfZero</title>
<path fill="none" stroke="#555555" d="M3863.38,-89.83C3863.38,-89.83 3863.38,-64.41 3863.38,-64.41"/>
<polygon fill="#555555" stroke="#555555" points="3866.88,-64.41 3863.38,-54.41 3859.88,-64.41 3866.88,-64.41"/>
</g>
<!-- src::c4:&#45;&gt;Instruction: -->
<g id="edge67" class="edge">
<title>src::c4::expr&#45;&gt;Instruction::Jump</title>
<path fill="none" stroke="#555555" d="M3865.25,-89.83C3865.25,-89.83 3865.25,-64.41 3865.25,-64.41"/>
<polygon fill="#555555" stroke="#555555" points="3868.75,-64.41 3865.25,-54.41 3861.75,-64.41 3868.75,-64.41"/>
</g>
<!-- src::c4:&#45;&gt;Instruction: -->
<g id="edge68" class="edge">
<title>src::c4::expr&#45;&gt;Instruction::BranchIfNonZero</title>
<path fill="none" stroke="#555555" d="M3867.12,-89.83C3867.12,-89.83 3867.12,-64.41 3867.12,-64.41"/>
<polygon fill="#555555" stroke="#555555" points="3870.63,-64.41 3867.12,-54.41 3863.63,-64.41 3870.63,-64.41"/>
</g>
<!-- src::c4:&#45;&gt;Instruction: -->
<g id="edge78" class="edge">
<title>src::c4::stmt&#45;&gt;Instruction::BranchIfZero</title>
<path fill="none" stroke="#555555" d="M3851,-89.99C3851,-67.51 3851,-32 3851,-32 3851,-32 3851.28,-32 3851.28,-32"/>
<polygon fill="#555555" stroke="#555555" points="3843.83,-35.5 3853.83,-32 3843.83,-28.5 3843.83,-35.5"/>
</g>
<!-- src::c4:&#45;&gt;Instruction: -->
<g id="edge81" class="edge">
<title>src::c4::stmt&#45;&gt;Instruction::Jump</title>
<path fill="none" stroke="#555555" d="M3852.5,-89.99C3852.5,-65.58 3852.5,-25 3852.5,-25 3852.5,-25 3852.61,-25 3852.61,-25"/>
<polygon fill="#555555" stroke="#555555" points="3843.64,-28.5 3853.64,-25 3843.64,-21.5 3843.64,-28.5"/>
</g>
</g>
</svg>
